%TF.GenerationSoftware,KiCad,Pcbnew,(5.1.6)-1*%
%TF.CreationDate,2021-02-06T14:44:40-06:00*%
%TF.ProjectId,Arduino_Clone,41726475-696e-46f5-9f43-6c6f6e652e6b,V 1.0*%
%TF.SameCoordinates,Original*%
%TF.FileFunction,Soldermask,Top*%
%TF.FilePolarity,Negative*%
%FSLAX46Y46*%
G04 Gerber Fmt 4.6, Leading zero omitted, Abs format (unit mm)*
G04 Created by KiCad (PCBNEW (5.1.6)-1) date 2021-02-06 14:44:40*
%MOMM*%
%LPD*%
G01*
G04 APERTURE LIST*
%ADD10O,1.800000X1.800000*%
%ADD11R,1.800000X1.800000*%
%ADD12R,0.650000X1.600000*%
%ADD13R,1.600000X0.650000*%
%ADD14R,1.900000X1.850000*%
%ADD15R,2.500000X3.600000*%
G04 APERTURE END LIST*
%TO.C,SW1*%
G36*
G01*
X105600800Y-75353000D02*
X104050800Y-75353000D01*
G75*
G02*
X103775800Y-75078000I0J275000D01*
G01*
X103775800Y-74528000D01*
G75*
G02*
X104050800Y-74253000I275000J0D01*
G01*
X105600800Y-74253000D01*
G75*
G02*
X105875800Y-74528000I0J-275000D01*
G01*
X105875800Y-75078000D01*
G75*
G02*
X105600800Y-75353000I-275000J0D01*
G01*
G37*
G36*
G01*
X114138000Y-75353000D02*
X112588000Y-75353000D01*
G75*
G02*
X112313000Y-75078000I0J275000D01*
G01*
X112313000Y-74528000D01*
G75*
G02*
X112588000Y-74253000I275000J0D01*
G01*
X114138000Y-74253000D01*
G75*
G02*
X114413000Y-74528000I0J-275000D01*
G01*
X114413000Y-75078000D01*
G75*
G02*
X114138000Y-75353000I-275000J0D01*
G01*
G37*
%TD*%
D10*
%TO.C,BT1*%
X117983000Y-74168000D03*
D11*
X120523000Y-74168000D03*
%TD*%
%TO.C,C1*%
G36*
G01*
X106804500Y-85229224D02*
X106804500Y-84221776D01*
G75*
G02*
X107075776Y-83950500I271276J0D01*
G01*
X107808224Y-83950500D01*
G75*
G02*
X108079500Y-84221776I0J-271276D01*
G01*
X108079500Y-85229224D01*
G75*
G02*
X107808224Y-85500500I-271276J0D01*
G01*
X107075776Y-85500500D01*
G75*
G02*
X106804500Y-85229224I0J271276D01*
G01*
G37*
G36*
G01*
X104729500Y-85229224D02*
X104729500Y-84221776D01*
G75*
G02*
X105000776Y-83950500I271276J0D01*
G01*
X105733224Y-83950500D01*
G75*
G02*
X106004500Y-84221776I0J-271276D01*
G01*
X106004500Y-85229224D01*
G75*
G02*
X105733224Y-85500500I-271276J0D01*
G01*
X105000776Y-85500500D01*
G75*
G02*
X104729500Y-85229224I0J271276D01*
G01*
G37*
%TD*%
%TO.C,C2*%
G36*
G01*
X104729500Y-89646974D02*
X104729500Y-88639526D01*
G75*
G02*
X105000776Y-88368250I271276J0D01*
G01*
X105733224Y-88368250D01*
G75*
G02*
X106004500Y-88639526I0J-271276D01*
G01*
X106004500Y-89646974D01*
G75*
G02*
X105733224Y-89918250I-271276J0D01*
G01*
X105000776Y-89918250D01*
G75*
G02*
X104729500Y-89646974I0J271276D01*
G01*
G37*
G36*
G01*
X106804500Y-89646974D02*
X106804500Y-88639526D01*
G75*
G02*
X107075776Y-88368250I271276J0D01*
G01*
X107808224Y-88368250D01*
G75*
G02*
X108079500Y-88639526I0J-271276D01*
G01*
X108079500Y-89646974D01*
G75*
G02*
X107808224Y-89918250I-271276J0D01*
G01*
X107075776Y-89918250D01*
G75*
G02*
X106804500Y-89646974I0J271276D01*
G01*
G37*
%TD*%
%TO.C,C3*%
G36*
G01*
X116440000Y-77474276D02*
X116440000Y-78481724D01*
G75*
G02*
X116168724Y-78753000I-271276J0D01*
G01*
X115436276Y-78753000D01*
G75*
G02*
X115165000Y-78481724I0J271276D01*
G01*
X115165000Y-77474276D01*
G75*
G02*
X115436276Y-77203000I271276J0D01*
G01*
X116168724Y-77203000D01*
G75*
G02*
X116440000Y-77474276I0J-271276D01*
G01*
G37*
G36*
G01*
X118515000Y-77474276D02*
X118515000Y-78481724D01*
G75*
G02*
X118243724Y-78753000I-271276J0D01*
G01*
X117511276Y-78753000D01*
G75*
G02*
X117240000Y-78481724I0J271276D01*
G01*
X117240000Y-77474276D01*
G75*
G02*
X117511276Y-77203000I271276J0D01*
G01*
X118243724Y-77203000D01*
G75*
G02*
X118515000Y-77474276I0J-271276D01*
G01*
G37*
%TD*%
%TO.C,C4*%
G36*
G01*
X104729500Y-80811474D02*
X104729500Y-79804026D01*
G75*
G02*
X105000776Y-79532750I271276J0D01*
G01*
X105733224Y-79532750D01*
G75*
G02*
X106004500Y-79804026I0J-271276D01*
G01*
X106004500Y-80811474D01*
G75*
G02*
X105733224Y-81082750I-271276J0D01*
G01*
X105000776Y-81082750D01*
G75*
G02*
X104729500Y-80811474I0J271276D01*
G01*
G37*
G36*
G01*
X106804500Y-80811474D02*
X106804500Y-79804026D01*
G75*
G02*
X107075776Y-79532750I271276J0D01*
G01*
X107808224Y-79532750D01*
G75*
G02*
X108079500Y-79804026I0J-271276D01*
G01*
X108079500Y-80811474D01*
G75*
G02*
X107808224Y-81082750I-271276J0D01*
G01*
X107075776Y-81082750D01*
G75*
G02*
X106804500Y-80811474I0J271276D01*
G01*
G37*
%TD*%
%TO.C,D1*%
G36*
G01*
X120171738Y-94489000D02*
X121128262Y-94489000D01*
G75*
G02*
X121400000Y-94760738I0J-271738D01*
G01*
X121400000Y-95467262D01*
G75*
G02*
X121128262Y-95739000I-271738J0D01*
G01*
X120171738Y-95739000D01*
G75*
G02*
X119900000Y-95467262I0J271738D01*
G01*
X119900000Y-94760738D01*
G75*
G02*
X120171738Y-94489000I271738J0D01*
G01*
G37*
G36*
G01*
X120171738Y-96539000D02*
X121128262Y-96539000D01*
G75*
G02*
X121400000Y-96810738I0J-271738D01*
G01*
X121400000Y-97517262D01*
G75*
G02*
X121128262Y-97789000I-271738J0D01*
G01*
X120171738Y-97789000D01*
G75*
G02*
X119900000Y-97517262I0J271738D01*
G01*
X119900000Y-96810738D01*
G75*
G02*
X120171738Y-96539000I271738J0D01*
G01*
G37*
%TD*%
%TO.C,J1*%
X100965000Y-75311000D03*
D10*
X100965000Y-77851000D03*
X100965000Y-80391000D03*
X100965000Y-82931000D03*
X100965000Y-85471000D03*
X100965000Y-88011000D03*
X100965000Y-90551000D03*
X100965000Y-93091000D03*
X100965000Y-95631000D03*
%TD*%
D11*
%TO.C,J2*%
X138253000Y-81788000D03*
D10*
X138253000Y-79248000D03*
X138253000Y-76708000D03*
X138253000Y-74168000D03*
%TD*%
D11*
%TO.C,J3*%
X105664000Y-94341000D03*
D10*
X105664000Y-96881000D03*
X108204000Y-94341000D03*
X108204000Y-96881000D03*
X110744000Y-94341000D03*
X110744000Y-96881000D03*
%TD*%
%TO.C,J4*%
X138303000Y-96901000D03*
X138303000Y-94361000D03*
X138303000Y-91821000D03*
D11*
X138303000Y-89281000D03*
%TD*%
%TO.C,J5*%
X133985000Y-96931000D03*
D10*
X131445000Y-96931000D03*
X128905000Y-96931000D03*
X126365000Y-96931000D03*
%TD*%
%TO.C,R1*%
G36*
G01*
X116868832Y-94489000D02*
X117827168Y-94489000D01*
G75*
G02*
X118098000Y-94759832I0J-270832D01*
G01*
X118098000Y-95518168D01*
G75*
G02*
X117827168Y-95789000I-270832J0D01*
G01*
X116868832Y-95789000D01*
G75*
G02*
X116598000Y-95518168I0J270832D01*
G01*
X116598000Y-94759832D01*
G75*
G02*
X116868832Y-94489000I270832J0D01*
G01*
G37*
G36*
G01*
X116868832Y-96489000D02*
X117827168Y-96489000D01*
G75*
G02*
X118098000Y-96759832I0J-270832D01*
G01*
X118098000Y-97518168D01*
G75*
G02*
X117827168Y-97789000I-270832J0D01*
G01*
X116868832Y-97789000D01*
G75*
G02*
X116598000Y-97518168I0J270832D01*
G01*
X116598000Y-96759832D01*
G75*
G02*
X116868832Y-96489000I270832J0D01*
G01*
G37*
%TD*%
%TO.C,R2*%
G36*
G01*
X123062000Y-77498832D02*
X123062000Y-78457168D01*
G75*
G02*
X122791168Y-78728000I-270832J0D01*
G01*
X122032832Y-78728000D01*
G75*
G02*
X121762000Y-78457168I0J270832D01*
G01*
X121762000Y-77498832D01*
G75*
G02*
X122032832Y-77228000I270832J0D01*
G01*
X122791168Y-77228000D01*
G75*
G02*
X123062000Y-77498832I0J-270832D01*
G01*
G37*
G36*
G01*
X121062000Y-77498832D02*
X121062000Y-78457168D01*
G75*
G02*
X120791168Y-78728000I-270832J0D01*
G01*
X120032832Y-78728000D01*
G75*
G02*
X119762000Y-78457168I0J270832D01*
G01*
X119762000Y-77498832D01*
G75*
G02*
X120032832Y-77228000I270832J0D01*
G01*
X120791168Y-77228000D01*
G75*
G02*
X121062000Y-77498832I0J-270832D01*
G01*
G37*
%TD*%
%TO.C,U1*%
G36*
G01*
X128443000Y-91771666D02*
X129743000Y-91771666D01*
G75*
G02*
X129918000Y-91946666I0J-175000D01*
G01*
X129918000Y-92296666D01*
G75*
G02*
X129743000Y-92471666I-175000J0D01*
G01*
X128443000Y-92471666D01*
G75*
G02*
X128268000Y-92296666I0J175000D01*
G01*
X128268000Y-91946666D01*
G75*
G02*
X128443000Y-91771666I175000J0D01*
G01*
G37*
G36*
G01*
X128443000Y-90501666D02*
X129743000Y-90501666D01*
G75*
G02*
X129918000Y-90676666I0J-175000D01*
G01*
X129918000Y-91026666D01*
G75*
G02*
X129743000Y-91201666I-175000J0D01*
G01*
X128443000Y-91201666D01*
G75*
G02*
X128268000Y-91026666I0J175000D01*
G01*
X128268000Y-90676666D01*
G75*
G02*
X128443000Y-90501666I175000J0D01*
G01*
G37*
G36*
G01*
X128443000Y-89231666D02*
X129743000Y-89231666D01*
G75*
G02*
X129918000Y-89406666I0J-175000D01*
G01*
X129918000Y-89756666D01*
G75*
G02*
X129743000Y-89931666I-175000J0D01*
G01*
X128443000Y-89931666D01*
G75*
G02*
X128268000Y-89756666I0J175000D01*
G01*
X128268000Y-89406666D01*
G75*
G02*
X128443000Y-89231666I175000J0D01*
G01*
G37*
G36*
G01*
X128443000Y-87961666D02*
X129743000Y-87961666D01*
G75*
G02*
X129918000Y-88136666I0J-175000D01*
G01*
X129918000Y-88486666D01*
G75*
G02*
X129743000Y-88661666I-175000J0D01*
G01*
X128443000Y-88661666D01*
G75*
G02*
X128268000Y-88486666I0J175000D01*
G01*
X128268000Y-88136666D01*
G75*
G02*
X128443000Y-87961666I175000J0D01*
G01*
G37*
G36*
G01*
X133843000Y-87961666D02*
X135143000Y-87961666D01*
G75*
G02*
X135318000Y-88136666I0J-175000D01*
G01*
X135318000Y-88486666D01*
G75*
G02*
X135143000Y-88661666I-175000J0D01*
G01*
X133843000Y-88661666D01*
G75*
G02*
X133668000Y-88486666I0J175000D01*
G01*
X133668000Y-88136666D01*
G75*
G02*
X133843000Y-87961666I175000J0D01*
G01*
G37*
G36*
G01*
X133843000Y-89231666D02*
X135143000Y-89231666D01*
G75*
G02*
X135318000Y-89406666I0J-175000D01*
G01*
X135318000Y-89756666D01*
G75*
G02*
X135143000Y-89931666I-175000J0D01*
G01*
X133843000Y-89931666D01*
G75*
G02*
X133668000Y-89756666I0J175000D01*
G01*
X133668000Y-89406666D01*
G75*
G02*
X133843000Y-89231666I175000J0D01*
G01*
G37*
G36*
G01*
X133843000Y-90501666D02*
X135143000Y-90501666D01*
G75*
G02*
X135318000Y-90676666I0J-175000D01*
G01*
X135318000Y-91026666D01*
G75*
G02*
X135143000Y-91201666I-175000J0D01*
G01*
X133843000Y-91201666D01*
G75*
G02*
X133668000Y-91026666I0J175000D01*
G01*
X133668000Y-90676666D01*
G75*
G02*
X133843000Y-90501666I175000J0D01*
G01*
G37*
G36*
G01*
X133843000Y-91771666D02*
X135143000Y-91771666D01*
G75*
G02*
X135318000Y-91946666I0J-175000D01*
G01*
X135318000Y-92296666D01*
G75*
G02*
X135143000Y-92471666I-175000J0D01*
G01*
X133843000Y-92471666D01*
G75*
G02*
X133668000Y-92296666I0J175000D01*
G01*
X133668000Y-91946666D01*
G75*
G02*
X133843000Y-91771666I175000J0D01*
G01*
G37*
%TD*%
%TO.C,U2*%
G36*
G01*
X133843000Y-84663133D02*
X135143000Y-84663133D01*
G75*
G02*
X135318000Y-84838133I0J-175000D01*
G01*
X135318000Y-85188133D01*
G75*
G02*
X135143000Y-85363133I-175000J0D01*
G01*
X133843000Y-85363133D01*
G75*
G02*
X133668000Y-85188133I0J175000D01*
G01*
X133668000Y-84838133D01*
G75*
G02*
X133843000Y-84663133I175000J0D01*
G01*
G37*
G36*
G01*
X133843000Y-83393133D02*
X135143000Y-83393133D01*
G75*
G02*
X135318000Y-83568133I0J-175000D01*
G01*
X135318000Y-83918133D01*
G75*
G02*
X135143000Y-84093133I-175000J0D01*
G01*
X133843000Y-84093133D01*
G75*
G02*
X133668000Y-83918133I0J175000D01*
G01*
X133668000Y-83568133D01*
G75*
G02*
X133843000Y-83393133I175000J0D01*
G01*
G37*
G36*
G01*
X133843000Y-82123133D02*
X135143000Y-82123133D01*
G75*
G02*
X135318000Y-82298133I0J-175000D01*
G01*
X135318000Y-82648133D01*
G75*
G02*
X135143000Y-82823133I-175000J0D01*
G01*
X133843000Y-82823133D01*
G75*
G02*
X133668000Y-82648133I0J175000D01*
G01*
X133668000Y-82298133D01*
G75*
G02*
X133843000Y-82123133I175000J0D01*
G01*
G37*
G36*
G01*
X133843000Y-80853133D02*
X135143000Y-80853133D01*
G75*
G02*
X135318000Y-81028133I0J-175000D01*
G01*
X135318000Y-81378133D01*
G75*
G02*
X135143000Y-81553133I-175000J0D01*
G01*
X133843000Y-81553133D01*
G75*
G02*
X133668000Y-81378133I0J175000D01*
G01*
X133668000Y-81028133D01*
G75*
G02*
X133843000Y-80853133I175000J0D01*
G01*
G37*
G36*
G01*
X128443000Y-80853133D02*
X129743000Y-80853133D01*
G75*
G02*
X129918000Y-81028133I0J-175000D01*
G01*
X129918000Y-81378133D01*
G75*
G02*
X129743000Y-81553133I-175000J0D01*
G01*
X128443000Y-81553133D01*
G75*
G02*
X128268000Y-81378133I0J175000D01*
G01*
X128268000Y-81028133D01*
G75*
G02*
X128443000Y-80853133I175000J0D01*
G01*
G37*
G36*
G01*
X128443000Y-82123133D02*
X129743000Y-82123133D01*
G75*
G02*
X129918000Y-82298133I0J-175000D01*
G01*
X129918000Y-82648133D01*
G75*
G02*
X129743000Y-82823133I-175000J0D01*
G01*
X128443000Y-82823133D01*
G75*
G02*
X128268000Y-82648133I0J175000D01*
G01*
X128268000Y-82298133D01*
G75*
G02*
X128443000Y-82123133I175000J0D01*
G01*
G37*
G36*
G01*
X128443000Y-83393133D02*
X129743000Y-83393133D01*
G75*
G02*
X129918000Y-83568133I0J-175000D01*
G01*
X129918000Y-83918133D01*
G75*
G02*
X129743000Y-84093133I-175000J0D01*
G01*
X128443000Y-84093133D01*
G75*
G02*
X128268000Y-83918133I0J175000D01*
G01*
X128268000Y-83568133D01*
G75*
G02*
X128443000Y-83393133I175000J0D01*
G01*
G37*
G36*
G01*
X128443000Y-84663133D02*
X129743000Y-84663133D01*
G75*
G02*
X129918000Y-84838133I0J-175000D01*
G01*
X129918000Y-85188133D01*
G75*
G02*
X129743000Y-85363133I-175000J0D01*
G01*
X128443000Y-85363133D01*
G75*
G02*
X128268000Y-85188133I0J175000D01*
G01*
X128268000Y-84838133D01*
G75*
G02*
X128443000Y-84663133I175000J0D01*
G01*
G37*
%TD*%
%TO.C,U3*%
G36*
G01*
X135326000Y-77549000D02*
X135326000Y-77899000D01*
G75*
G02*
X135151000Y-78074000I-175000J0D01*
G01*
X133451000Y-78074000D01*
G75*
G02*
X133276000Y-77899000I0J175000D01*
G01*
X133276000Y-77549000D01*
G75*
G02*
X133451000Y-77374000I175000J0D01*
G01*
X135151000Y-77374000D01*
G75*
G02*
X135326000Y-77549000I0J-175000D01*
G01*
G37*
G36*
G01*
X135326000Y-76279000D02*
X135326000Y-76629000D01*
G75*
G02*
X135151000Y-76804000I-175000J0D01*
G01*
X133451000Y-76804000D01*
G75*
G02*
X133276000Y-76629000I0J175000D01*
G01*
X133276000Y-76279000D01*
G75*
G02*
X133451000Y-76104000I175000J0D01*
G01*
X135151000Y-76104000D01*
G75*
G02*
X135326000Y-76279000I0J-175000D01*
G01*
G37*
G36*
G01*
X135326000Y-75009000D02*
X135326000Y-75359000D01*
G75*
G02*
X135151000Y-75534000I-175000J0D01*
G01*
X133451000Y-75534000D01*
G75*
G02*
X133276000Y-75359000I0J175000D01*
G01*
X133276000Y-75009000D01*
G75*
G02*
X133451000Y-74834000I175000J0D01*
G01*
X135151000Y-74834000D01*
G75*
G02*
X135326000Y-75009000I0J-175000D01*
G01*
G37*
G36*
G01*
X135326000Y-73739000D02*
X135326000Y-74089000D01*
G75*
G02*
X135151000Y-74264000I-175000J0D01*
G01*
X133451000Y-74264000D01*
G75*
G02*
X133276000Y-74089000I0J175000D01*
G01*
X133276000Y-73739000D01*
G75*
G02*
X133451000Y-73564000I175000J0D01*
G01*
X135151000Y-73564000D01*
G75*
G02*
X135326000Y-73739000I0J-175000D01*
G01*
G37*
G36*
G01*
X130376000Y-73739000D02*
X130376000Y-74089000D01*
G75*
G02*
X130201000Y-74264000I-175000J0D01*
G01*
X128501000Y-74264000D01*
G75*
G02*
X128326000Y-74089000I0J175000D01*
G01*
X128326000Y-73739000D01*
G75*
G02*
X128501000Y-73564000I175000J0D01*
G01*
X130201000Y-73564000D01*
G75*
G02*
X130376000Y-73739000I0J-175000D01*
G01*
G37*
G36*
G01*
X130376000Y-75009000D02*
X130376000Y-75359000D01*
G75*
G02*
X130201000Y-75534000I-175000J0D01*
G01*
X128501000Y-75534000D01*
G75*
G02*
X128326000Y-75359000I0J175000D01*
G01*
X128326000Y-75009000D01*
G75*
G02*
X128501000Y-74834000I175000J0D01*
G01*
X130201000Y-74834000D01*
G75*
G02*
X130376000Y-75009000I0J-175000D01*
G01*
G37*
G36*
G01*
X130376000Y-76279000D02*
X130376000Y-76629000D01*
G75*
G02*
X130201000Y-76804000I-175000J0D01*
G01*
X128501000Y-76804000D01*
G75*
G02*
X128326000Y-76629000I0J175000D01*
G01*
X128326000Y-76279000D01*
G75*
G02*
X128501000Y-76104000I175000J0D01*
G01*
X130201000Y-76104000D01*
G75*
G02*
X130376000Y-76279000I0J-175000D01*
G01*
G37*
G36*
G01*
X130376000Y-77549000D02*
X130376000Y-77899000D01*
G75*
G02*
X130201000Y-78074000I-175000J0D01*
G01*
X128501000Y-78074000D01*
G75*
G02*
X128326000Y-77899000I0J175000D01*
G01*
X128326000Y-77549000D01*
G75*
G02*
X128501000Y-77374000I175000J0D01*
G01*
X130201000Y-77374000D01*
G75*
G02*
X130376000Y-77549000I0J-175000D01*
G01*
G37*
%TD*%
D12*
%TO.C,U4*%
X117850000Y-90687000D03*
D13*
X116450000Y-83687000D03*
X116450000Y-84487000D03*
X116450000Y-85287000D03*
X116450000Y-86087000D03*
X116450000Y-86887000D03*
X116450000Y-87687000D03*
X116450000Y-88487000D03*
X116450000Y-89287000D03*
D12*
X118650000Y-90687000D03*
X119450000Y-90687000D03*
X120250000Y-90687000D03*
X121050000Y-90687000D03*
X121850000Y-90687000D03*
X122650000Y-90687000D03*
X123450000Y-90687000D03*
D13*
X124850000Y-89287000D03*
X124850000Y-88487000D03*
X124850000Y-87687000D03*
X124850000Y-86887000D03*
X124850000Y-86087000D03*
X124850000Y-85287000D03*
X124850000Y-84487000D03*
X124850000Y-83687000D03*
D12*
X123450000Y-82287000D03*
X122650000Y-82287000D03*
X121850000Y-82287000D03*
X121050000Y-82287000D03*
X120250000Y-82287000D03*
X119450000Y-82287000D03*
X118650000Y-82287000D03*
X117850000Y-82287000D03*
%TD*%
D14*
%TO.C,Y1*%
X125857000Y-74575000D03*
X125857000Y-77825000D03*
%TD*%
D15*
%TO.C,Y2*%
X111887000Y-84522000D03*
X111887000Y-89722000D03*
%TD*%
M02*
