%TF.GenerationSoftware,KiCad,Pcbnew,(5.1.6)-1*%
%TF.CreationDate,2021-02-06T14:44:40-06:00*%
%TF.ProjectId,Arduino_Clone,41726475-696e-46f5-9f43-6c6f6e652e6b,V 1.0*%
%TF.SameCoordinates,Original*%
%TF.FileFunction,Legend,Top*%
%TF.FilePolarity,Positive*%
%FSLAX46Y46*%
G04 Gerber Fmt 4.6, Leading zero omitted, Abs format (unit mm)*
G04 Created by KiCad (PCBNEW (5.1.6)-1) date 2021-02-06 14:44:40*
%MOMM*%
%LPD*%
G01*
G04 APERTURE LIST*
%ADD10C,0.150000*%
%ADD11C,0.120000*%
%ADD12C,0.060000*%
%ADD13C,0.100000*%
G04 APERTURE END LIST*
D10*
X122682047Y-74239428D02*
X123443952Y-74239428D01*
X123063000Y-74620380D02*
X123063000Y-73858476D01*
D11*
%TO.C,SW1*%
X106045000Y-72923400D02*
X106045000Y-76631800D01*
X106045000Y-76631800D02*
X112141000Y-76631800D01*
X112141000Y-76631800D02*
X112141000Y-72923400D01*
X112141000Y-72923400D02*
X106045000Y-72923400D01*
%TO.C,BT1*%
X121853000Y-72838000D02*
X121853000Y-74168000D01*
X120523000Y-72838000D02*
X121853000Y-72838000D01*
X119253000Y-72838000D02*
X119253000Y-75498000D01*
X119253000Y-75498000D02*
X116653000Y-75498000D01*
X119253000Y-72838000D02*
X116653000Y-72838000D01*
X116653000Y-72838000D02*
X116653000Y-75498000D01*
%TO.C,C1*%
X106143248Y-85460500D02*
X106665752Y-85460500D01*
X106143248Y-83990500D02*
X106665752Y-83990500D01*
%TO.C,C2*%
X106143248Y-88408250D02*
X106665752Y-88408250D01*
X106143248Y-89878250D02*
X106665752Y-89878250D01*
%TO.C,C3*%
X117101252Y-77243000D02*
X116578748Y-77243000D01*
X117101252Y-78713000D02*
X116578748Y-78713000D01*
%TO.C,C4*%
X106143248Y-79572750D02*
X106665752Y-79572750D01*
X106143248Y-81042750D02*
X106665752Y-81042750D01*
%TO.C,D1*%
X121610000Y-97139000D02*
X121610000Y-94279000D01*
X121610000Y-94279000D02*
X119690000Y-94279000D01*
X119690000Y-94279000D02*
X119690000Y-97139000D01*
%TO.C,J1*%
X99635000Y-76581000D02*
X102295000Y-76581000D01*
X99635000Y-76581000D02*
X99635000Y-96961000D01*
X99635000Y-96961000D02*
X102295000Y-96961000D01*
X102295000Y-76581000D02*
X102295000Y-96961000D01*
X102295000Y-73981000D02*
X102295000Y-75311000D01*
X100965000Y-73981000D02*
X102295000Y-73981000D01*
%TO.C,J2*%
X139583000Y-80518000D02*
X136923000Y-80518000D01*
X139583000Y-80518000D02*
X139583000Y-72838000D01*
X139583000Y-72838000D02*
X136923000Y-72838000D01*
X136923000Y-80518000D02*
X136923000Y-72838000D01*
X136923000Y-83118000D02*
X136923000Y-81788000D01*
X138253000Y-83118000D02*
X136923000Y-83118000D01*
%TO.C,J3*%
X104334000Y-98211000D02*
X104334000Y-95611000D01*
X104334000Y-98211000D02*
X112074000Y-98211000D01*
X112074000Y-98211000D02*
X112074000Y-93011000D01*
X106934000Y-93011000D02*
X112074000Y-93011000D01*
X106934000Y-95611000D02*
X106934000Y-93011000D01*
X104334000Y-95611000D02*
X106934000Y-95611000D01*
X104334000Y-93011000D02*
X105664000Y-93011000D01*
X104334000Y-94341000D02*
X104334000Y-93011000D01*
%TO.C,J4*%
X138303000Y-87951000D02*
X139633000Y-87951000D01*
X139633000Y-87951000D02*
X139633000Y-89281000D01*
X139633000Y-90551000D02*
X139633000Y-98231000D01*
X136973000Y-98231000D02*
X139633000Y-98231000D01*
X136973000Y-90551000D02*
X136973000Y-98231000D01*
X136973000Y-90551000D02*
X139633000Y-90551000D01*
%TO.C,J5*%
X132715000Y-95601000D02*
X132715000Y-98261000D01*
X132715000Y-95601000D02*
X125035000Y-95601000D01*
X125035000Y-95601000D02*
X125035000Y-98261000D01*
X132715000Y-98261000D02*
X125035000Y-98261000D01*
X135315000Y-98261000D02*
X133985000Y-98261000D01*
X135315000Y-96931000D02*
X135315000Y-98261000D01*
%TO.C,R1*%
X118083000Y-95911936D02*
X118083000Y-96366064D01*
X116613000Y-95911936D02*
X116613000Y-96366064D01*
%TO.C,R2*%
X121639064Y-78713000D02*
X121184936Y-78713000D01*
X121639064Y-77243000D02*
X121184936Y-77243000D01*
%TO.C,U1*%
X129946400Y-92375466D02*
X133654800Y-92375466D01*
X129946400Y-88057466D02*
X129946400Y-92375466D01*
X133654800Y-88057466D02*
X129946400Y-88057466D01*
X133654800Y-92375466D02*
X133654800Y-88057466D01*
D12*
X135178800Y-92629466D02*
G75*
G03*
X135178800Y-92629466I-101600J0D01*
G01*
%TO.C,U2*%
X135178800Y-85520933D02*
G75*
G03*
X135178800Y-85520933I-101600J0D01*
G01*
D11*
X133654800Y-85266933D02*
X133654800Y-80948933D01*
X133654800Y-80948933D02*
X129946400Y-80948933D01*
X129946400Y-80948933D02*
X129946400Y-85266933D01*
X129946400Y-85266933D02*
X133654800Y-85266933D01*
%TO.C,U3*%
X131826000Y-73259000D02*
X129876000Y-73259000D01*
X131826000Y-73259000D02*
X133776000Y-73259000D01*
X131826000Y-78379000D02*
X129876000Y-78379000D01*
X131826000Y-78379000D02*
X135276000Y-78379000D01*
D13*
%TO.C,U4*%
X117500000Y-82887000D02*
X117400000Y-82887000D01*
X117400000Y-82887000D02*
X117050000Y-83237000D01*
X117050000Y-83237000D02*
X117050000Y-83337000D01*
X117050000Y-83337000D02*
X115750000Y-83337000D01*
X124250000Y-82887000D02*
X123800000Y-82887000D01*
X124250000Y-82887000D02*
X124250000Y-83337000D01*
X124250000Y-90087000D02*
X124250000Y-89637000D01*
X124250000Y-90087000D02*
X123800000Y-90087000D01*
X117050000Y-90087000D02*
X117500000Y-90087000D01*
X117050000Y-90087000D02*
X117050000Y-89637000D01*
D11*
%TO.C,Y1*%
X126807000Y-75650000D02*
X126807000Y-76750000D01*
X124907000Y-75650000D02*
X124907000Y-76750000D01*
X126757000Y-73500000D02*
X124957000Y-73500000D01*
%TO.C,Y2*%
X113687000Y-89822000D02*
X113687000Y-82572000D01*
X113687000Y-82572000D02*
X110087000Y-82572000D01*
X110087000Y-82572000D02*
X110087000Y-89822000D01*
%TO.C,SW1*%
D10*
X109664666Y-78001761D02*
X109807523Y-78049380D01*
X110045619Y-78049380D01*
X110140857Y-78001761D01*
X110188476Y-77954142D01*
X110236095Y-77858904D01*
X110236095Y-77763666D01*
X110188476Y-77668428D01*
X110140857Y-77620809D01*
X110045619Y-77573190D01*
X109855142Y-77525571D01*
X109759904Y-77477952D01*
X109712285Y-77430333D01*
X109664666Y-77335095D01*
X109664666Y-77239857D01*
X109712285Y-77144619D01*
X109759904Y-77097000D01*
X109855142Y-77049380D01*
X110093238Y-77049380D01*
X110236095Y-77097000D01*
X110569428Y-77049380D02*
X110807523Y-78049380D01*
X110998000Y-77335095D01*
X111188476Y-78049380D01*
X111426571Y-77049380D01*
X112331333Y-78049380D02*
X111759904Y-78049380D01*
X112045619Y-78049380D02*
X112045619Y-77049380D01*
X111950380Y-77192238D01*
X111855142Y-77287476D01*
X111759904Y-77335095D01*
%TO.C,BT1*%
X115371571Y-74953714D02*
X115419190Y-74810857D01*
X115466809Y-74763238D01*
X115562047Y-74715619D01*
X115704904Y-74715619D01*
X115800142Y-74763238D01*
X115847761Y-74810857D01*
X115895380Y-74906095D01*
X115895380Y-75287047D01*
X114895380Y-75287047D01*
X114895380Y-74953714D01*
X114943000Y-74858476D01*
X114990619Y-74810857D01*
X115085857Y-74763238D01*
X115181095Y-74763238D01*
X115276333Y-74810857D01*
X115323952Y-74858476D01*
X115371571Y-74953714D01*
X115371571Y-75287047D01*
X114895380Y-74429904D02*
X114895380Y-73858476D01*
X115895380Y-74144190D02*
X114895380Y-74144190D01*
X115895380Y-73001333D02*
X115895380Y-73572761D01*
X115895380Y-73287047D02*
X114895380Y-73287047D01*
X115038238Y-73382285D01*
X115133476Y-73477523D01*
X115181095Y-73572761D01*
%TO.C,C1*%
X106237833Y-83402642D02*
X106190214Y-83450261D01*
X106047357Y-83497880D01*
X105952119Y-83497880D01*
X105809261Y-83450261D01*
X105714023Y-83355023D01*
X105666404Y-83259785D01*
X105618785Y-83069309D01*
X105618785Y-82926452D01*
X105666404Y-82735976D01*
X105714023Y-82640738D01*
X105809261Y-82545500D01*
X105952119Y-82497880D01*
X106047357Y-82497880D01*
X106190214Y-82545500D01*
X106237833Y-82593119D01*
X107190214Y-83497880D02*
X106618785Y-83497880D01*
X106904500Y-83497880D02*
X106904500Y-82497880D01*
X106809261Y-82640738D01*
X106714023Y-82735976D01*
X106618785Y-82783595D01*
%TO.C,C2*%
X106237833Y-87820392D02*
X106190214Y-87868011D01*
X106047357Y-87915630D01*
X105952119Y-87915630D01*
X105809261Y-87868011D01*
X105714023Y-87772773D01*
X105666404Y-87677535D01*
X105618785Y-87487059D01*
X105618785Y-87344202D01*
X105666404Y-87153726D01*
X105714023Y-87058488D01*
X105809261Y-86963250D01*
X105952119Y-86915630D01*
X106047357Y-86915630D01*
X106190214Y-86963250D01*
X106237833Y-87010869D01*
X106618785Y-87010869D02*
X106666404Y-86963250D01*
X106761642Y-86915630D01*
X106999738Y-86915630D01*
X107094976Y-86963250D01*
X107142595Y-87010869D01*
X107190214Y-87106107D01*
X107190214Y-87201345D01*
X107142595Y-87344202D01*
X106571166Y-87915630D01*
X107190214Y-87915630D01*
%TO.C,C3*%
X116673333Y-80015142D02*
X116625714Y-80062761D01*
X116482857Y-80110380D01*
X116387619Y-80110380D01*
X116244761Y-80062761D01*
X116149523Y-79967523D01*
X116101904Y-79872285D01*
X116054285Y-79681809D01*
X116054285Y-79538952D01*
X116101904Y-79348476D01*
X116149523Y-79253238D01*
X116244761Y-79158000D01*
X116387619Y-79110380D01*
X116482857Y-79110380D01*
X116625714Y-79158000D01*
X116673333Y-79205619D01*
X117006666Y-79110380D02*
X117625714Y-79110380D01*
X117292380Y-79491333D01*
X117435238Y-79491333D01*
X117530476Y-79538952D01*
X117578095Y-79586571D01*
X117625714Y-79681809D01*
X117625714Y-79919904D01*
X117578095Y-80015142D01*
X117530476Y-80062761D01*
X117435238Y-80110380D01*
X117149523Y-80110380D01*
X117054285Y-80062761D01*
X117006666Y-80015142D01*
%TO.C,C4*%
X106237833Y-78984892D02*
X106190214Y-79032511D01*
X106047357Y-79080130D01*
X105952119Y-79080130D01*
X105809261Y-79032511D01*
X105714023Y-78937273D01*
X105666404Y-78842035D01*
X105618785Y-78651559D01*
X105618785Y-78508702D01*
X105666404Y-78318226D01*
X105714023Y-78222988D01*
X105809261Y-78127750D01*
X105952119Y-78080130D01*
X106047357Y-78080130D01*
X106190214Y-78127750D01*
X106237833Y-78175369D01*
X107094976Y-78413464D02*
X107094976Y-79080130D01*
X106856880Y-78032511D02*
X106618785Y-78746797D01*
X107237833Y-78746797D01*
%TO.C,D1*%
X119451380Y-96877095D02*
X118451380Y-96877095D01*
X118451380Y-96639000D01*
X118499000Y-96496142D01*
X118594238Y-96400904D01*
X118689476Y-96353285D01*
X118879952Y-96305666D01*
X119022809Y-96305666D01*
X119213285Y-96353285D01*
X119308523Y-96400904D01*
X119403761Y-96496142D01*
X119451380Y-96639000D01*
X119451380Y-96877095D01*
X119451380Y-95353285D02*
X119451380Y-95924714D01*
X119451380Y-95639000D02*
X118451380Y-95639000D01*
X118594238Y-95734238D01*
X118689476Y-95829476D01*
X118737095Y-95924714D01*
%TO.C,J1*%
X100631666Y-72350380D02*
X100631666Y-73064666D01*
X100584047Y-73207523D01*
X100488809Y-73302761D01*
X100345952Y-73350380D01*
X100250714Y-73350380D01*
X101631666Y-73350380D02*
X101060238Y-73350380D01*
X101345952Y-73350380D02*
X101345952Y-72350380D01*
X101250714Y-72493238D01*
X101155476Y-72588476D01*
X101060238Y-72636095D01*
%TO.C,J2*%
X137919666Y-83907380D02*
X137919666Y-84621666D01*
X137872047Y-84764523D01*
X137776809Y-84859761D01*
X137633952Y-84907380D01*
X137538714Y-84907380D01*
X138348238Y-84002619D02*
X138395857Y-83955000D01*
X138491095Y-83907380D01*
X138729190Y-83907380D01*
X138824428Y-83955000D01*
X138872047Y-84002619D01*
X138919666Y-84097857D01*
X138919666Y-84193095D01*
X138872047Y-84335952D01*
X138300619Y-84907380D01*
X138919666Y-84907380D01*
%TO.C,J3*%
X104949666Y-91400380D02*
X104949666Y-92114666D01*
X104902047Y-92257523D01*
X104806809Y-92352761D01*
X104663952Y-92400380D01*
X104568714Y-92400380D01*
X105330619Y-91400380D02*
X105949666Y-91400380D01*
X105616333Y-91781333D01*
X105759190Y-91781333D01*
X105854428Y-91828952D01*
X105902047Y-91876571D01*
X105949666Y-91971809D01*
X105949666Y-92209904D01*
X105902047Y-92305142D01*
X105854428Y-92352761D01*
X105759190Y-92400380D01*
X105473476Y-92400380D01*
X105378238Y-92352761D01*
X105330619Y-92305142D01*
%TO.C,J4*%
X137969666Y-86193380D02*
X137969666Y-86907666D01*
X137922047Y-87050523D01*
X137826809Y-87145761D01*
X137683952Y-87193380D01*
X137588714Y-87193380D01*
X138874428Y-86526714D02*
X138874428Y-87193380D01*
X138636333Y-86145761D02*
X138398238Y-86860047D01*
X139017285Y-86860047D01*
%TO.C,J5*%
X133905666Y-93940380D02*
X133905666Y-94654666D01*
X133858047Y-94797523D01*
X133762809Y-94892761D01*
X133619952Y-94940380D01*
X133524714Y-94940380D01*
X134858047Y-93940380D02*
X134381857Y-93940380D01*
X134334238Y-94416571D01*
X134381857Y-94368952D01*
X134477095Y-94321333D01*
X134715190Y-94321333D01*
X134810428Y-94368952D01*
X134858047Y-94416571D01*
X134905666Y-94511809D01*
X134905666Y-94749904D01*
X134858047Y-94845142D01*
X134810428Y-94892761D01*
X134715190Y-94940380D01*
X134477095Y-94940380D01*
X134381857Y-94892761D01*
X134334238Y-94845142D01*
%TO.C,R1*%
X116149380Y-96305666D02*
X115673190Y-96639000D01*
X116149380Y-96877095D02*
X115149380Y-96877095D01*
X115149380Y-96496142D01*
X115197000Y-96400904D01*
X115244619Y-96353285D01*
X115339857Y-96305666D01*
X115482714Y-96305666D01*
X115577952Y-96353285D01*
X115625571Y-96400904D01*
X115673190Y-96496142D01*
X115673190Y-96877095D01*
X116149380Y-95353285D02*
X116149380Y-95924714D01*
X116149380Y-95639000D02*
X115149380Y-95639000D01*
X115292238Y-95734238D01*
X115387476Y-95829476D01*
X115435095Y-95924714D01*
%TO.C,R2*%
X121245333Y-80080380D02*
X120912000Y-79604190D01*
X120673904Y-80080380D02*
X120673904Y-79080380D01*
X121054857Y-79080380D01*
X121150095Y-79128000D01*
X121197714Y-79175619D01*
X121245333Y-79270857D01*
X121245333Y-79413714D01*
X121197714Y-79508952D01*
X121150095Y-79556571D01*
X121054857Y-79604190D01*
X120673904Y-79604190D01*
X121626285Y-79175619D02*
X121673904Y-79128000D01*
X121769142Y-79080380D01*
X122007238Y-79080380D01*
X122102476Y-79128000D01*
X122150095Y-79175619D01*
X122197714Y-79270857D01*
X122197714Y-79366095D01*
X122150095Y-79508952D01*
X121578666Y-80080380D01*
X122197714Y-80080380D01*
%TO.C,U1*%
X131013295Y-92670380D02*
X131013295Y-93479904D01*
X131060914Y-93575142D01*
X131108533Y-93622761D01*
X131203771Y-93670380D01*
X131394247Y-93670380D01*
X131489485Y-93622761D01*
X131537104Y-93575142D01*
X131584723Y-93479904D01*
X131584723Y-92670380D01*
X132584723Y-93670380D02*
X132013295Y-93670380D01*
X132299009Y-93670380D02*
X132299009Y-92670380D01*
X132203771Y-92813238D01*
X132108533Y-92908476D01*
X132013295Y-92956095D01*
%TO.C,U2*%
X131013295Y-85558380D02*
X131013295Y-86367904D01*
X131060914Y-86463142D01*
X131108533Y-86510761D01*
X131203771Y-86558380D01*
X131394247Y-86558380D01*
X131489485Y-86510761D01*
X131537104Y-86463142D01*
X131584723Y-86367904D01*
X131584723Y-85558380D01*
X132013295Y-85653619D02*
X132060914Y-85606000D01*
X132156152Y-85558380D01*
X132394247Y-85558380D01*
X132489485Y-85606000D01*
X132537104Y-85653619D01*
X132584723Y-85748857D01*
X132584723Y-85844095D01*
X132537104Y-85986952D01*
X131965676Y-86558380D01*
X132584723Y-86558380D01*
%TO.C,U3*%
X131064095Y-78671380D02*
X131064095Y-79480904D01*
X131111714Y-79576142D01*
X131159333Y-79623761D01*
X131254571Y-79671380D01*
X131445047Y-79671380D01*
X131540285Y-79623761D01*
X131587904Y-79576142D01*
X131635523Y-79480904D01*
X131635523Y-78671380D01*
X132016476Y-78671380D02*
X132635523Y-78671380D01*
X132302190Y-79052333D01*
X132445047Y-79052333D01*
X132540285Y-79099952D01*
X132587904Y-79147571D01*
X132635523Y-79242809D01*
X132635523Y-79480904D01*
X132587904Y-79576142D01*
X132540285Y-79623761D01*
X132445047Y-79671380D01*
X132159333Y-79671380D01*
X132064095Y-79623761D01*
X132016476Y-79576142D01*
%TO.C,U4*%
X119888095Y-92035380D02*
X119888095Y-92844904D01*
X119935714Y-92940142D01*
X119983333Y-92987761D01*
X120078571Y-93035380D01*
X120269047Y-93035380D01*
X120364285Y-92987761D01*
X120411904Y-92940142D01*
X120459523Y-92844904D01*
X120459523Y-92035380D01*
X121364285Y-92368714D02*
X121364285Y-93035380D01*
X121126190Y-91987761D02*
X120888095Y-92702047D01*
X121507142Y-92702047D01*
%TO.C,Y1*%
X124872809Y-79732190D02*
X124872809Y-80208380D01*
X124539476Y-79208380D02*
X124872809Y-79732190D01*
X125206142Y-79208380D01*
X126063285Y-80208380D02*
X125491857Y-80208380D01*
X125777571Y-80208380D02*
X125777571Y-79208380D01*
X125682333Y-79351238D01*
X125587095Y-79446476D01*
X125491857Y-79494095D01*
%TO.C,Y2*%
X111410809Y-81764190D02*
X111410809Y-82240380D01*
X111077476Y-81240380D02*
X111410809Y-81764190D01*
X111744142Y-81240380D01*
X112029857Y-81335619D02*
X112077476Y-81288000D01*
X112172714Y-81240380D01*
X112410809Y-81240380D01*
X112506047Y-81288000D01*
X112553666Y-81335619D01*
X112601285Y-81430857D01*
X112601285Y-81526095D01*
X112553666Y-81668952D01*
X111982238Y-82240380D01*
X112601285Y-82240380D01*
%TD*%
M02*
