%TF.GenerationSoftware,KiCad,Pcbnew,(5.1.6)-1*%
%TF.CreationDate,2021-02-06T14:44:40-06:00*%
%TF.ProjectId,Arduino_Clone,41726475-696e-46f5-9f43-6c6f6e652e6b,V 1.0*%
%TF.SameCoordinates,Original*%
%TF.FileFunction,Copper,L2,Bot*%
%TF.FilePolarity,Positive*%
%FSLAX46Y46*%
G04 Gerber Fmt 4.6, Leading zero omitted, Abs format (unit mm)*
G04 Created by KiCad (PCBNEW (5.1.6)-1) date 2021-02-06 14:44:40*
%MOMM*%
%LPD*%
G01*
G04 APERTURE LIST*
%TA.AperFunction,ComponentPad*%
%ADD10O,1.700000X1.700000*%
%TD*%
%TA.AperFunction,ComponentPad*%
%ADD11R,1.700000X1.700000*%
%TD*%
%TA.AperFunction,ViaPad*%
%ADD12C,0.800000*%
%TD*%
%TA.AperFunction,Conductor*%
%ADD13C,0.250000*%
%TD*%
%TA.AperFunction,Conductor*%
%ADD14C,0.254000*%
%TD*%
G04 APERTURE END LIST*
D10*
%TO.P,BT1,2*%
%TO.N,GND*%
X117983000Y-74168000D03*
D11*
%TO.P,BT1,1*%
%TO.N,/Vcc*%
X120523000Y-74168000D03*
%TD*%
%TO.P,J1,1*%
%TO.N,/D2*%
X100965000Y-75311000D03*
D10*
%TO.P,J1,2*%
%TO.N,/D3*%
X100965000Y-77851000D03*
%TO.P,J1,3*%
%TO.N,/D4*%
X100965000Y-80391000D03*
%TO.P,J1,4*%
%TO.N,/D5*%
X100965000Y-82931000D03*
%TO.P,J1,5*%
%TO.N,/D6*%
X100965000Y-85471000D03*
%TO.P,J1,6*%
%TO.N,/D7*%
X100965000Y-88011000D03*
%TO.P,J1,7*%
%TO.N,/D8*%
X100965000Y-90551000D03*
%TO.P,J1,8*%
%TO.N,GND*%
X100965000Y-93091000D03*
%TO.P,J1,9*%
%TO.N,/Vcc*%
X100965000Y-95631000D03*
%TD*%
D11*
%TO.P,J2,1*%
%TO.N,GND*%
X138253000Y-81788000D03*
D10*
%TO.P,J2,2*%
%TO.N,/Vcc*%
X138253000Y-79248000D03*
%TO.P,J2,3*%
%TO.N,/RX*%
X138253000Y-76708000D03*
%TO.P,J2,4*%
%TO.N,/TX*%
X138253000Y-74168000D03*
%TD*%
D11*
%TO.P,J3,1*%
%TO.N,/MISO*%
X105664000Y-94341000D03*
D10*
%TO.P,J3,2*%
%TO.N,/Vcc*%
X105664000Y-96881000D03*
%TO.P,J3,3*%
%TO.N,/SCK*%
X108204000Y-94341000D03*
%TO.P,J3,4*%
%TO.N,/MOSI*%
X108204000Y-96881000D03*
%TO.P,J3,5*%
%TO.N,/RESET*%
X110744000Y-94341000D03*
%TO.P,J3,6*%
%TO.N,GND*%
X110744000Y-96881000D03*
%TD*%
%TO.P,J4,4*%
%TO.N,/SCL*%
X138303000Y-96901000D03*
%TO.P,J4,3*%
%TO.N,/SDA*%
X138303000Y-94361000D03*
%TO.P,J4,2*%
%TO.N,/Vcc*%
X138303000Y-91821000D03*
D11*
%TO.P,J4,1*%
%TO.N,GND*%
X138303000Y-89281000D03*
%TD*%
%TO.P,J5,1*%
%TO.N,/A0*%
X133985000Y-96931000D03*
D10*
%TO.P,J5,2*%
%TO.N,/A1*%
X131445000Y-96931000D03*
%TO.P,J5,3*%
%TO.N,/A2*%
X128905000Y-96931000D03*
%TO.P,J5,4*%
%TO.N,/A3*%
X126365000Y-96931000D03*
%TD*%
D12*
%TO.N,Net-(C1-Pad1)*%
X106680000Y-85979000D03*
X109855000Y-84582000D03*
%TO.N,/SCK*%
X118872000Y-97155000D03*
%TO.N,/D2*%
X117729000Y-80645000D03*
%TO.N,/D3*%
X114793579Y-83592048D03*
%TO.N,/D4*%
X114935000Y-84582000D03*
%TO.N,/D5*%
X116078000Y-90805000D03*
%TO.N,/RX*%
X119507000Y-80645000D03*
%TO.N,/TX*%
X118618000Y-79883000D03*
%TO.N,/MISO*%
X123444000Y-92075000D03*
%TO.N,/RESET*%
X115062000Y-74952000D03*
X120269000Y-84074000D03*
X122412000Y-73771000D03*
%TO.N,/SDA*%
X135763000Y-79375000D03*
X137033000Y-77597000D03*
X132334000Y-88392000D03*
X127762000Y-79248000D03*
X122809000Y-79629000D03*
%TO.N,/A0*%
X127139000Y-84455000D03*
%TO.N,/A1*%
X126238000Y-83820000D03*
%TO.N,/A2*%
X123472693Y-83924784D03*
%TO.N,/A3*%
X122682000Y-84537000D03*
%TO.N,/SCL*%
X130937000Y-89662000D03*
X132805236Y-80264000D03*
X136017000Y-77433000D03*
X126489867Y-80645000D03*
X121283381Y-80135708D03*
%TD*%
D13*
%TO.N,Net-(C1-Pad1)*%
X106680000Y-85979000D02*
X108458000Y-85979000D01*
X108458000Y-85979000D02*
X109855000Y-84582000D01*
%TO.N,/SCK*%
X109379001Y-95516001D02*
X117233001Y-95516001D01*
X108204000Y-94341000D02*
X109379001Y-95516001D01*
X117233001Y-95516001D02*
X118872000Y-97155000D01*
%TO.N,/D2*%
X100965000Y-75311000D02*
X112395000Y-75311000D01*
X112395000Y-75311000D02*
X117729000Y-80645000D01*
%TO.N,/D3*%
X114793579Y-83678579D02*
X114793579Y-83592048D01*
X108966000Y-77851000D02*
X114793579Y-83678579D01*
X100965000Y-77851000D02*
X108966000Y-77851000D01*
%TO.N,/D4*%
X100965000Y-80391000D02*
X110363000Y-80391000D01*
X110363000Y-80391000D02*
X114554000Y-84582000D01*
X114554000Y-84582000D02*
X114935000Y-84582000D01*
%TO.N,/D5*%
X100965000Y-82931000D02*
X108839000Y-90805000D01*
X108839000Y-90805000D02*
X116078000Y-90805000D01*
%TO.N,/RX*%
X138253000Y-76708000D02*
X123444000Y-76708000D01*
X123444000Y-76708000D02*
X119507000Y-80645000D01*
%TO.N,/TX*%
X138253000Y-74168000D02*
X136163010Y-76257990D01*
X122243010Y-76257990D02*
X118618000Y-79883000D01*
X136163010Y-76257990D02*
X122243010Y-76257990D01*
%TO.N,/MISO*%
X122353001Y-93165999D02*
X123444000Y-92075000D01*
X106839001Y-93165999D02*
X122353001Y-93165999D01*
X105664000Y-94341000D02*
X106839001Y-93165999D01*
%TO.N,/RESET*%
X124169001Y-87974001D02*
X120269000Y-84074000D01*
X124169001Y-92423001D02*
X124169001Y-87974001D01*
X122251002Y-94341000D02*
X124169001Y-92423001D01*
X110744000Y-94341000D02*
X122251002Y-94341000D01*
X117021001Y-72992999D02*
X115062000Y-74952000D01*
X121633999Y-72992999D02*
X117021001Y-72992999D01*
X122412000Y-73771000D02*
X121633999Y-72992999D01*
%TO.N,/SDA*%
X137033000Y-77597000D02*
X137033000Y-78994000D01*
X136652000Y-79375000D02*
X135763000Y-79375000D01*
X137033000Y-78994000D02*
X136652000Y-79375000D01*
X138303000Y-94361000D02*
X132334000Y-88392000D01*
X132334000Y-88392000D02*
X132334000Y-88392000D01*
X132334000Y-88392000D02*
X133604000Y-88392000D01*
X133604000Y-88392000D02*
X136652000Y-85344000D01*
X136652000Y-80264000D02*
X135763000Y-79375000D01*
X136652000Y-85344000D02*
X136652000Y-80264000D01*
X127762000Y-79248000D02*
X123190000Y-79248000D01*
X123190000Y-79248000D02*
X122809000Y-79629000D01*
%TO.N,/A0*%
X127381000Y-84455000D02*
X127139000Y-84455000D01*
X133985000Y-96931000D02*
X133985000Y-95244360D01*
X133985000Y-95244360D02*
X128270000Y-89529360D01*
X128270000Y-85586000D02*
X127139000Y-84455000D01*
X128270000Y-89529360D02*
X128270000Y-85586000D01*
%TO.N,/A1*%
X131445000Y-96931000D02*
X131445000Y-93340770D01*
X131445000Y-93340770D02*
X129355009Y-91250779D01*
X129355009Y-91250779D02*
X126365000Y-88260770D01*
X126365000Y-88260770D02*
X126365000Y-83947000D01*
X126365000Y-83947000D02*
X126238000Y-83820000D01*
%TO.N,/A2*%
X128905000Y-96931000D02*
X128905000Y-91437180D01*
X128905000Y-91437180D02*
X123444000Y-85976180D01*
X123444000Y-85976180D02*
X123444000Y-83947000D01*
X123444000Y-83947000D02*
X123450477Y-83947000D01*
X123450477Y-83947000D02*
X123472693Y-83924784D01*
%TO.N,/A3*%
X122682000Y-85850590D02*
X122682000Y-84709000D01*
X126365000Y-89533590D02*
X122682000Y-85850590D01*
X122682000Y-84709000D02*
X122682000Y-84537000D01*
X126365000Y-96931000D02*
X126365000Y-89533590D01*
%TO.N,/SCL*%
X138303000Y-96901000D02*
X131064000Y-89662000D01*
X131064000Y-89662000D02*
X130937000Y-89662000D01*
X135255000Y-80264000D02*
X136201990Y-81210990D01*
X136201990Y-81210990D02*
X136201990Y-83254010D01*
X130937000Y-88519000D02*
X130937000Y-89662000D01*
X136201990Y-83254010D02*
X130937000Y-88519000D01*
X122751998Y-80645000D02*
X121989998Y-79883000D01*
X126489867Y-80645000D02*
X122751998Y-80645000D01*
X121989998Y-79883000D02*
X121536089Y-79883000D01*
X121536089Y-79883000D02*
X121283381Y-80135708D01*
X135636236Y-77433000D02*
X136017000Y-77433000D01*
X132805236Y-80264000D02*
X135636236Y-77433000D01*
X135255000Y-80264000D02*
X132805236Y-80264000D01*
%TD*%
D14*
%TO.N,GND*%
G36*
X115022199Y-73917000D02*
G01*
X114960061Y-73917000D01*
X114760102Y-73956774D01*
X114571744Y-74034795D01*
X114402226Y-74148063D01*
X114258063Y-74292226D01*
X114144795Y-74461744D01*
X114066774Y-74650102D01*
X114027000Y-74850061D01*
X114027000Y-75053939D01*
X114066774Y-75253898D01*
X114144795Y-75442256D01*
X114258063Y-75611774D01*
X114402226Y-75755937D01*
X114571744Y-75869205D01*
X114760102Y-75947226D01*
X114960061Y-75987000D01*
X115163939Y-75987000D01*
X115363898Y-75947226D01*
X115552256Y-75869205D01*
X115721774Y-75755937D01*
X115865937Y-75611774D01*
X115979205Y-75442256D01*
X116057226Y-75253898D01*
X116097000Y-75053939D01*
X116097000Y-74991801D01*
X116547382Y-74541419D01*
X116638843Y-74799252D01*
X116787822Y-75049355D01*
X116982731Y-75265588D01*
X117216080Y-75439641D01*
X117478901Y-75564825D01*
X117626110Y-75609476D01*
X117856000Y-75488155D01*
X117856000Y-74295000D01*
X117836000Y-74295000D01*
X117836000Y-74041000D01*
X117856000Y-74041000D01*
X117856000Y-74021000D01*
X118110000Y-74021000D01*
X118110000Y-74041000D01*
X118130000Y-74041000D01*
X118130000Y-74295000D01*
X118110000Y-74295000D01*
X118110000Y-75488155D01*
X118339890Y-75609476D01*
X118487099Y-75564825D01*
X118749920Y-75439641D01*
X118983269Y-75265588D01*
X119059034Y-75181534D01*
X119083498Y-75262180D01*
X119142463Y-75372494D01*
X119221815Y-75469185D01*
X119318506Y-75548537D01*
X119428820Y-75607502D01*
X119548518Y-75643812D01*
X119673000Y-75656072D01*
X121373000Y-75656072D01*
X121497482Y-75643812D01*
X121617180Y-75607502D01*
X121727494Y-75548537D01*
X121824185Y-75469185D01*
X121903537Y-75372494D01*
X121962502Y-75262180D01*
X121998812Y-75142482D01*
X122011072Y-75018000D01*
X122011072Y-74725206D01*
X122110102Y-74766226D01*
X122310061Y-74806000D01*
X122513939Y-74806000D01*
X122713898Y-74766226D01*
X122902256Y-74688205D01*
X123071774Y-74574937D01*
X123215937Y-74430774D01*
X123329205Y-74261256D01*
X123407226Y-74072898D01*
X123447000Y-73872939D01*
X123447000Y-73669061D01*
X123407226Y-73469102D01*
X123329205Y-73280744D01*
X123215937Y-73111226D01*
X123071774Y-72967063D01*
X122902256Y-72853795D01*
X122713898Y-72775774D01*
X122513939Y-72736000D01*
X122451801Y-72736000D01*
X122257801Y-72542000D01*
X139802001Y-72542000D01*
X139802000Y-98400000D01*
X134981938Y-98400000D01*
X135079180Y-98370502D01*
X135189494Y-98311537D01*
X135286185Y-98232185D01*
X135365537Y-98135494D01*
X135424502Y-98025180D01*
X135460812Y-97905482D01*
X135473072Y-97781000D01*
X135473072Y-96081000D01*
X135460812Y-95956518D01*
X135424502Y-95836820D01*
X135365537Y-95726506D01*
X135286185Y-95629815D01*
X135189494Y-95550463D01*
X135079180Y-95491498D01*
X134959482Y-95455188D01*
X134835000Y-95442928D01*
X134745000Y-95442928D01*
X134745000Y-95281693D01*
X134748677Y-95244360D01*
X134734003Y-95095374D01*
X134690546Y-94952113D01*
X134619974Y-94820084D01*
X134548799Y-94733357D01*
X134525001Y-94704359D01*
X134496003Y-94680561D01*
X130289739Y-90474298D01*
X130446744Y-90579205D01*
X130635102Y-90657226D01*
X130835061Y-90697000D01*
X131024199Y-90697000D01*
X136861790Y-96534592D01*
X136818000Y-96754740D01*
X136818000Y-97047260D01*
X136875068Y-97334158D01*
X136987010Y-97604411D01*
X137149525Y-97847632D01*
X137356368Y-98054475D01*
X137599589Y-98216990D01*
X137869842Y-98328932D01*
X138156740Y-98386000D01*
X138449260Y-98386000D01*
X138736158Y-98328932D01*
X139006411Y-98216990D01*
X139249632Y-98054475D01*
X139456475Y-97847632D01*
X139618990Y-97604411D01*
X139730932Y-97334158D01*
X139788000Y-97047260D01*
X139788000Y-96754740D01*
X139730932Y-96467842D01*
X139618990Y-96197589D01*
X139456475Y-95954368D01*
X139249632Y-95747525D01*
X139075240Y-95631000D01*
X139249632Y-95514475D01*
X139456475Y-95307632D01*
X139618990Y-95064411D01*
X139730932Y-94794158D01*
X139788000Y-94507260D01*
X139788000Y-94214740D01*
X139730932Y-93927842D01*
X139618990Y-93657589D01*
X139456475Y-93414368D01*
X139249632Y-93207525D01*
X139075240Y-93091000D01*
X139249632Y-92974475D01*
X139456475Y-92767632D01*
X139618990Y-92524411D01*
X139730932Y-92254158D01*
X139788000Y-91967260D01*
X139788000Y-91674740D01*
X139730932Y-91387842D01*
X139618990Y-91117589D01*
X139456475Y-90874368D01*
X139324620Y-90742513D01*
X139397180Y-90720502D01*
X139507494Y-90661537D01*
X139604185Y-90582185D01*
X139683537Y-90485494D01*
X139742502Y-90375180D01*
X139778812Y-90255482D01*
X139791072Y-90131000D01*
X139788000Y-89566750D01*
X139629250Y-89408000D01*
X138430000Y-89408000D01*
X138430000Y-89428000D01*
X138176000Y-89428000D01*
X138176000Y-89408000D01*
X136976750Y-89408000D01*
X136818000Y-89566750D01*
X136814928Y-90131000D01*
X136827188Y-90255482D01*
X136863498Y-90375180D01*
X136922463Y-90485494D01*
X137001815Y-90582185D01*
X137098506Y-90661537D01*
X137208820Y-90720502D01*
X137281380Y-90742513D01*
X137149525Y-90874368D01*
X136987010Y-91117589D01*
X136875068Y-91387842D01*
X136818000Y-91674740D01*
X136818000Y-91801198D01*
X134036789Y-89019988D01*
X134144001Y-88932001D01*
X134167804Y-88902997D01*
X134639801Y-88431000D01*
X136814928Y-88431000D01*
X136818000Y-88995250D01*
X136976750Y-89154000D01*
X138176000Y-89154000D01*
X138176000Y-87954750D01*
X138430000Y-87954750D01*
X138430000Y-89154000D01*
X139629250Y-89154000D01*
X139788000Y-88995250D01*
X139791072Y-88431000D01*
X139778812Y-88306518D01*
X139742502Y-88186820D01*
X139683537Y-88076506D01*
X139604185Y-87979815D01*
X139507494Y-87900463D01*
X139397180Y-87841498D01*
X139277482Y-87805188D01*
X139153000Y-87792928D01*
X138588750Y-87796000D01*
X138430000Y-87954750D01*
X138176000Y-87954750D01*
X138017250Y-87796000D01*
X137453000Y-87792928D01*
X137328518Y-87805188D01*
X137208820Y-87841498D01*
X137098506Y-87900463D01*
X137001815Y-87979815D01*
X136922463Y-88076506D01*
X136863498Y-88186820D01*
X136827188Y-88306518D01*
X136814928Y-88431000D01*
X134639801Y-88431000D01*
X137163004Y-85907798D01*
X137192001Y-85884001D01*
X137236307Y-85830014D01*
X137286974Y-85768277D01*
X137357546Y-85636247D01*
X137357546Y-85636246D01*
X137401003Y-85492986D01*
X137412000Y-85381333D01*
X137412000Y-85381323D01*
X137415676Y-85344000D01*
X137412000Y-85306677D01*
X137412000Y-83276023D01*
X137967250Y-83273000D01*
X138126000Y-83114250D01*
X138126000Y-81915000D01*
X138380000Y-81915000D01*
X138380000Y-83114250D01*
X138538750Y-83273000D01*
X139103000Y-83276072D01*
X139227482Y-83263812D01*
X139347180Y-83227502D01*
X139457494Y-83168537D01*
X139554185Y-83089185D01*
X139633537Y-82992494D01*
X139692502Y-82882180D01*
X139728812Y-82762482D01*
X139741072Y-82638000D01*
X139738000Y-82073750D01*
X139579250Y-81915000D01*
X138380000Y-81915000D01*
X138126000Y-81915000D01*
X138106000Y-81915000D01*
X138106000Y-81661000D01*
X138126000Y-81661000D01*
X138126000Y-81641000D01*
X138380000Y-81641000D01*
X138380000Y-81661000D01*
X139579250Y-81661000D01*
X139738000Y-81502250D01*
X139741072Y-80938000D01*
X139728812Y-80813518D01*
X139692502Y-80693820D01*
X139633537Y-80583506D01*
X139554185Y-80486815D01*
X139457494Y-80407463D01*
X139347180Y-80348498D01*
X139274620Y-80326487D01*
X139406475Y-80194632D01*
X139568990Y-79951411D01*
X139680932Y-79681158D01*
X139738000Y-79394260D01*
X139738000Y-79101740D01*
X139680932Y-78814842D01*
X139568990Y-78544589D01*
X139406475Y-78301368D01*
X139199632Y-78094525D01*
X139025240Y-77978000D01*
X139199632Y-77861475D01*
X139406475Y-77654632D01*
X139568990Y-77411411D01*
X139680932Y-77141158D01*
X139738000Y-76854260D01*
X139738000Y-76561740D01*
X139680932Y-76274842D01*
X139568990Y-76004589D01*
X139406475Y-75761368D01*
X139199632Y-75554525D01*
X139025240Y-75438000D01*
X139199632Y-75321475D01*
X139406475Y-75114632D01*
X139568990Y-74871411D01*
X139680932Y-74601158D01*
X139738000Y-74314260D01*
X139738000Y-74021740D01*
X139680932Y-73734842D01*
X139568990Y-73464589D01*
X139406475Y-73221368D01*
X139199632Y-73014525D01*
X138956411Y-72852010D01*
X138686158Y-72740068D01*
X138399260Y-72683000D01*
X138106740Y-72683000D01*
X137819842Y-72740068D01*
X137549589Y-72852010D01*
X137306368Y-73014525D01*
X137099525Y-73221368D01*
X136937010Y-73464589D01*
X136825068Y-73734842D01*
X136768000Y-74021740D01*
X136768000Y-74314260D01*
X136811790Y-74534408D01*
X135848209Y-75497990D01*
X122280332Y-75497990D01*
X122243009Y-75494314D01*
X122205686Y-75497990D01*
X122205677Y-75497990D01*
X122094024Y-75508987D01*
X121950763Y-75552444D01*
X121818734Y-75623016D01*
X121703009Y-75717989D01*
X121679211Y-75746987D01*
X118578199Y-78848000D01*
X118516061Y-78848000D01*
X118316102Y-78887774D01*
X118127744Y-78965795D01*
X117958226Y-79079063D01*
X117814063Y-79223226D01*
X117700795Y-79392744D01*
X117657081Y-79498279D01*
X112958804Y-74800003D01*
X112935001Y-74770999D01*
X112819276Y-74676026D01*
X112687247Y-74605454D01*
X112543986Y-74561997D01*
X112432333Y-74551000D01*
X112432322Y-74551000D01*
X112395000Y-74547324D01*
X112357678Y-74551000D01*
X102453072Y-74551000D01*
X102453072Y-74461000D01*
X102440812Y-74336518D01*
X102404502Y-74216820D01*
X102345537Y-74106506D01*
X102266185Y-74009815D01*
X102169494Y-73930463D01*
X102059180Y-73871498D01*
X101939482Y-73835188D01*
X101815000Y-73822928D01*
X100115000Y-73822928D01*
X99990518Y-73835188D01*
X99870820Y-73871498D01*
X99760506Y-73930463D01*
X99663815Y-74009815D01*
X99584463Y-74106506D01*
X99525498Y-74216820D01*
X99489188Y-74336518D01*
X99476928Y-74461000D01*
X99476928Y-76161000D01*
X99489188Y-76285482D01*
X99525498Y-76405180D01*
X99584463Y-76515494D01*
X99663815Y-76612185D01*
X99760506Y-76691537D01*
X99870820Y-76750502D01*
X99943380Y-76772513D01*
X99811525Y-76904368D01*
X99649010Y-77147589D01*
X99537068Y-77417842D01*
X99480000Y-77704740D01*
X99480000Y-77997260D01*
X99537068Y-78284158D01*
X99649010Y-78554411D01*
X99811525Y-78797632D01*
X100018368Y-79004475D01*
X100192760Y-79121000D01*
X100018368Y-79237525D01*
X99811525Y-79444368D01*
X99649010Y-79687589D01*
X99537068Y-79957842D01*
X99480000Y-80244740D01*
X99480000Y-80537260D01*
X99537068Y-80824158D01*
X99649010Y-81094411D01*
X99811525Y-81337632D01*
X100018368Y-81544475D01*
X100192760Y-81661000D01*
X100018368Y-81777525D01*
X99811525Y-81984368D01*
X99649010Y-82227589D01*
X99537068Y-82497842D01*
X99480000Y-82784740D01*
X99480000Y-83077260D01*
X99537068Y-83364158D01*
X99649010Y-83634411D01*
X99811525Y-83877632D01*
X100018368Y-84084475D01*
X100192760Y-84201000D01*
X100018368Y-84317525D01*
X99811525Y-84524368D01*
X99649010Y-84767589D01*
X99537068Y-85037842D01*
X99480000Y-85324740D01*
X99480000Y-85617260D01*
X99537068Y-85904158D01*
X99649010Y-86174411D01*
X99811525Y-86417632D01*
X100018368Y-86624475D01*
X100192760Y-86741000D01*
X100018368Y-86857525D01*
X99811525Y-87064368D01*
X99649010Y-87307589D01*
X99537068Y-87577842D01*
X99480000Y-87864740D01*
X99480000Y-88157260D01*
X99537068Y-88444158D01*
X99649010Y-88714411D01*
X99811525Y-88957632D01*
X100018368Y-89164475D01*
X100192760Y-89281000D01*
X100018368Y-89397525D01*
X99811525Y-89604368D01*
X99649010Y-89847589D01*
X99537068Y-90117842D01*
X99480000Y-90404740D01*
X99480000Y-90697260D01*
X99537068Y-90984158D01*
X99649010Y-91254411D01*
X99811525Y-91497632D01*
X100018368Y-91704475D01*
X100200534Y-91826195D01*
X100083645Y-91895822D01*
X99867412Y-92090731D01*
X99693359Y-92324080D01*
X99568175Y-92586901D01*
X99523524Y-92734110D01*
X99644845Y-92964000D01*
X100838000Y-92964000D01*
X100838000Y-92944000D01*
X101092000Y-92944000D01*
X101092000Y-92964000D01*
X102285155Y-92964000D01*
X102406476Y-92734110D01*
X102361825Y-92586901D01*
X102236641Y-92324080D01*
X102062588Y-92090731D01*
X101846355Y-91895822D01*
X101729466Y-91826195D01*
X101911632Y-91704475D01*
X102118475Y-91497632D01*
X102280990Y-91254411D01*
X102392932Y-90984158D01*
X102450000Y-90697260D01*
X102450000Y-90404740D01*
X102392932Y-90117842D01*
X102280990Y-89847589D01*
X102118475Y-89604368D01*
X101911632Y-89397525D01*
X101737240Y-89281000D01*
X101911632Y-89164475D01*
X102118475Y-88957632D01*
X102280990Y-88714411D01*
X102392932Y-88444158D01*
X102450000Y-88157260D01*
X102450000Y-87864740D01*
X102392932Y-87577842D01*
X102280990Y-87307589D01*
X102118475Y-87064368D01*
X101911632Y-86857525D01*
X101737240Y-86741000D01*
X101911632Y-86624475D01*
X102118475Y-86417632D01*
X102280990Y-86174411D01*
X102392932Y-85904158D01*
X102450000Y-85617260D01*
X102450000Y-85490801D01*
X108275201Y-91316003D01*
X108298999Y-91345001D01*
X108327997Y-91368799D01*
X108414724Y-91439974D01*
X108546753Y-91510546D01*
X108690014Y-91554003D01*
X108839000Y-91568677D01*
X108876333Y-91565000D01*
X115374289Y-91565000D01*
X115418226Y-91608937D01*
X115587744Y-91722205D01*
X115776102Y-91800226D01*
X115976061Y-91840000D01*
X116179939Y-91840000D01*
X116379898Y-91800226D01*
X116568256Y-91722205D01*
X116737774Y-91608937D01*
X116881937Y-91464774D01*
X116995205Y-91295256D01*
X117073226Y-91106898D01*
X117113000Y-90906939D01*
X117113000Y-90703061D01*
X117073226Y-90503102D01*
X116995205Y-90314744D01*
X116881937Y-90145226D01*
X116737774Y-90001063D01*
X116568256Y-89887795D01*
X116379898Y-89809774D01*
X116179939Y-89770000D01*
X115976061Y-89770000D01*
X115776102Y-89809774D01*
X115587744Y-89887795D01*
X115418226Y-90001063D01*
X115374289Y-90045000D01*
X109153802Y-90045000D01*
X104985863Y-85877061D01*
X105645000Y-85877061D01*
X105645000Y-86080939D01*
X105684774Y-86280898D01*
X105762795Y-86469256D01*
X105876063Y-86638774D01*
X106020226Y-86782937D01*
X106189744Y-86896205D01*
X106378102Y-86974226D01*
X106578061Y-87014000D01*
X106781939Y-87014000D01*
X106981898Y-86974226D01*
X107170256Y-86896205D01*
X107339774Y-86782937D01*
X107383711Y-86739000D01*
X108420678Y-86739000D01*
X108458000Y-86742676D01*
X108495322Y-86739000D01*
X108495333Y-86739000D01*
X108606986Y-86728003D01*
X108750247Y-86684546D01*
X108882276Y-86613974D01*
X108998001Y-86519001D01*
X109021804Y-86489997D01*
X109894802Y-85617000D01*
X109956939Y-85617000D01*
X110156898Y-85577226D01*
X110345256Y-85499205D01*
X110514774Y-85385937D01*
X110658937Y-85241774D01*
X110772205Y-85072256D01*
X110850226Y-84883898D01*
X110890000Y-84683939D01*
X110890000Y-84480061D01*
X110850226Y-84280102D01*
X110772205Y-84091744D01*
X110658937Y-83922226D01*
X110514774Y-83778063D01*
X110345256Y-83664795D01*
X110156898Y-83586774D01*
X109956939Y-83547000D01*
X109753061Y-83547000D01*
X109553102Y-83586774D01*
X109364744Y-83664795D01*
X109195226Y-83778063D01*
X109051063Y-83922226D01*
X108937795Y-84091744D01*
X108859774Y-84280102D01*
X108820000Y-84480061D01*
X108820000Y-84542198D01*
X108143199Y-85219000D01*
X107383711Y-85219000D01*
X107339774Y-85175063D01*
X107170256Y-85061795D01*
X106981898Y-84983774D01*
X106781939Y-84944000D01*
X106578061Y-84944000D01*
X106378102Y-84983774D01*
X106189744Y-85061795D01*
X106020226Y-85175063D01*
X105876063Y-85319226D01*
X105762795Y-85488744D01*
X105684774Y-85677102D01*
X105645000Y-85877061D01*
X104985863Y-85877061D01*
X102406209Y-83297408D01*
X102450000Y-83077260D01*
X102450000Y-82784740D01*
X102392932Y-82497842D01*
X102280990Y-82227589D01*
X102118475Y-81984368D01*
X101911632Y-81777525D01*
X101737240Y-81661000D01*
X101911632Y-81544475D01*
X102118475Y-81337632D01*
X102243178Y-81151000D01*
X110048199Y-81151000D01*
X113990201Y-85093003D01*
X114013999Y-85122001D01*
X114042997Y-85145799D01*
X114095999Y-85189297D01*
X114131063Y-85241774D01*
X114275226Y-85385937D01*
X114444744Y-85499205D01*
X114633102Y-85577226D01*
X114833061Y-85617000D01*
X115036939Y-85617000D01*
X115236898Y-85577226D01*
X115425256Y-85499205D01*
X115594774Y-85385937D01*
X115738937Y-85241774D01*
X115852205Y-85072256D01*
X115930226Y-84883898D01*
X115970000Y-84683939D01*
X115970000Y-84480061D01*
X115930226Y-84280102D01*
X115852205Y-84091744D01*
X115762490Y-83957476D01*
X115788805Y-83893946D01*
X115828579Y-83693987D01*
X115828579Y-83490109D01*
X115788805Y-83290150D01*
X115710784Y-83101792D01*
X115597516Y-82932274D01*
X115453353Y-82788111D01*
X115283835Y-82674843D01*
X115095477Y-82596822D01*
X114895518Y-82557048D01*
X114746850Y-82557048D01*
X109529804Y-77340003D01*
X109506001Y-77310999D01*
X109390276Y-77216026D01*
X109258247Y-77145454D01*
X109114986Y-77101997D01*
X109003333Y-77091000D01*
X109003322Y-77091000D01*
X108966000Y-77087324D01*
X108928678Y-77091000D01*
X102243178Y-77091000D01*
X102118475Y-76904368D01*
X101986620Y-76772513D01*
X102059180Y-76750502D01*
X102169494Y-76691537D01*
X102266185Y-76612185D01*
X102345537Y-76515494D01*
X102404502Y-76405180D01*
X102440812Y-76285482D01*
X102453072Y-76161000D01*
X102453072Y-76071000D01*
X112080199Y-76071000D01*
X116694000Y-80684802D01*
X116694000Y-80746939D01*
X116733774Y-80946898D01*
X116811795Y-81135256D01*
X116925063Y-81304774D01*
X117069226Y-81448937D01*
X117238744Y-81562205D01*
X117427102Y-81640226D01*
X117627061Y-81680000D01*
X117830939Y-81680000D01*
X118030898Y-81640226D01*
X118219256Y-81562205D01*
X118388774Y-81448937D01*
X118532937Y-81304774D01*
X118618000Y-81177468D01*
X118703063Y-81304774D01*
X118847226Y-81448937D01*
X119016744Y-81562205D01*
X119205102Y-81640226D01*
X119405061Y-81680000D01*
X119608939Y-81680000D01*
X119808898Y-81640226D01*
X119997256Y-81562205D01*
X120166774Y-81448937D01*
X120310937Y-81304774D01*
X120424205Y-81135256D01*
X120502226Y-80946898D01*
X120523568Y-80839606D01*
X120623607Y-80939645D01*
X120793125Y-81052913D01*
X120981483Y-81130934D01*
X121181442Y-81170708D01*
X121385320Y-81170708D01*
X121585279Y-81130934D01*
X121773637Y-81052913D01*
X121943155Y-80939645D01*
X121957498Y-80925302D01*
X122188199Y-81156002D01*
X122211997Y-81185001D01*
X122327722Y-81279974D01*
X122459751Y-81350546D01*
X122603012Y-81394003D01*
X122714665Y-81405000D01*
X122714673Y-81405000D01*
X122751998Y-81408676D01*
X122789323Y-81405000D01*
X125786156Y-81405000D01*
X125830093Y-81448937D01*
X125999611Y-81562205D01*
X126187969Y-81640226D01*
X126387928Y-81680000D01*
X126591806Y-81680000D01*
X126791765Y-81640226D01*
X126980123Y-81562205D01*
X127149641Y-81448937D01*
X127293804Y-81304774D01*
X127407072Y-81135256D01*
X127485093Y-80946898D01*
X127524867Y-80746939D01*
X127524867Y-80543061D01*
X127485093Y-80343102D01*
X127440330Y-80235036D01*
X127460102Y-80243226D01*
X127660061Y-80283000D01*
X127863939Y-80283000D01*
X128063898Y-80243226D01*
X128252256Y-80165205D01*
X128421774Y-80051937D01*
X128565937Y-79907774D01*
X128679205Y-79738256D01*
X128757226Y-79549898D01*
X128797000Y-79349939D01*
X128797000Y-79146061D01*
X128757226Y-78946102D01*
X128679205Y-78757744D01*
X128565937Y-78588226D01*
X128421774Y-78444063D01*
X128252256Y-78330795D01*
X128063898Y-78252774D01*
X127863939Y-78213000D01*
X127660061Y-78213000D01*
X127460102Y-78252774D01*
X127271744Y-78330795D01*
X127102226Y-78444063D01*
X127058289Y-78488000D01*
X123227322Y-78488000D01*
X123189999Y-78484324D01*
X123152676Y-78488000D01*
X123152667Y-78488000D01*
X123041014Y-78498997D01*
X122897753Y-78542454D01*
X122801319Y-78594000D01*
X122707061Y-78594000D01*
X122614363Y-78612439D01*
X123758802Y-77468000D01*
X134526434Y-77468000D01*
X132765435Y-79229000D01*
X132703297Y-79229000D01*
X132503338Y-79268774D01*
X132314980Y-79346795D01*
X132145462Y-79460063D01*
X132001299Y-79604226D01*
X131888031Y-79773744D01*
X131810010Y-79962102D01*
X131770236Y-80162061D01*
X131770236Y-80365939D01*
X131810010Y-80565898D01*
X131888031Y-80754256D01*
X132001299Y-80923774D01*
X132145462Y-81067937D01*
X132314980Y-81181205D01*
X132503338Y-81259226D01*
X132703297Y-81299000D01*
X132907175Y-81299000D01*
X133107134Y-81259226D01*
X133295492Y-81181205D01*
X133465010Y-81067937D01*
X133508947Y-81024000D01*
X134940199Y-81024000D01*
X135441990Y-81525792D01*
X135441991Y-82939207D01*
X130426003Y-87955196D01*
X130396999Y-87978999D01*
X130341871Y-88046174D01*
X130302026Y-88094724D01*
X130292907Y-88111785D01*
X130231454Y-88226754D01*
X130187997Y-88370015D01*
X130177000Y-88481668D01*
X130177000Y-88481678D01*
X130173324Y-88519000D01*
X130177000Y-88556323D01*
X130177000Y-88958289D01*
X130133063Y-89002226D01*
X130019795Y-89171744D01*
X129941774Y-89360102D01*
X129902000Y-89560061D01*
X129902000Y-89763939D01*
X129941774Y-89963898D01*
X130019795Y-90152256D01*
X130124702Y-90309261D01*
X129030000Y-89214559D01*
X129030000Y-85623333D01*
X129033677Y-85586000D01*
X129019003Y-85437014D01*
X128975546Y-85293753D01*
X128904974Y-85161724D01*
X128833799Y-85074997D01*
X128810001Y-85045999D01*
X128781003Y-85022201D01*
X128174000Y-84415199D01*
X128174000Y-84353061D01*
X128134226Y-84153102D01*
X128056205Y-83964744D01*
X127942937Y-83795226D01*
X127798774Y-83651063D01*
X127629256Y-83537795D01*
X127440898Y-83459774D01*
X127240939Y-83420000D01*
X127192591Y-83420000D01*
X127155205Y-83329744D01*
X127041937Y-83160226D01*
X126897774Y-83016063D01*
X126728256Y-82902795D01*
X126539898Y-82824774D01*
X126339939Y-82785000D01*
X126136061Y-82785000D01*
X125936102Y-82824774D01*
X125747744Y-82902795D01*
X125578226Y-83016063D01*
X125434063Y-83160226D01*
X125320795Y-83329744D01*
X125242774Y-83518102D01*
X125203000Y-83718061D01*
X125203000Y-83921939D01*
X125242774Y-84121898D01*
X125320795Y-84310256D01*
X125434063Y-84479774D01*
X125578226Y-84623937D01*
X125605001Y-84641827D01*
X125605000Y-87062379D01*
X124204000Y-85661379D01*
X124204000Y-84657188D01*
X124276630Y-84584558D01*
X124389898Y-84415040D01*
X124467919Y-84226682D01*
X124507693Y-84026723D01*
X124507693Y-83822845D01*
X124467919Y-83622886D01*
X124389898Y-83434528D01*
X124276630Y-83265010D01*
X124132467Y-83120847D01*
X123962949Y-83007579D01*
X123774591Y-82929558D01*
X123574632Y-82889784D01*
X123370754Y-82889784D01*
X123170795Y-82929558D01*
X122982437Y-83007579D01*
X122812919Y-83120847D01*
X122668756Y-83265010D01*
X122555488Y-83434528D01*
X122522824Y-83513385D01*
X122380102Y-83541774D01*
X122191744Y-83619795D01*
X122022226Y-83733063D01*
X121878063Y-83877226D01*
X121764795Y-84046744D01*
X121686774Y-84235102D01*
X121656600Y-84386799D01*
X121304000Y-84034199D01*
X121304000Y-83972061D01*
X121264226Y-83772102D01*
X121186205Y-83583744D01*
X121072937Y-83414226D01*
X120928774Y-83270063D01*
X120759256Y-83156795D01*
X120570898Y-83078774D01*
X120370939Y-83039000D01*
X120167061Y-83039000D01*
X119967102Y-83078774D01*
X119778744Y-83156795D01*
X119609226Y-83270063D01*
X119465063Y-83414226D01*
X119351795Y-83583744D01*
X119273774Y-83772102D01*
X119234000Y-83972061D01*
X119234000Y-84175939D01*
X119273774Y-84375898D01*
X119351795Y-84564256D01*
X119465063Y-84733774D01*
X119609226Y-84877937D01*
X119778744Y-84991205D01*
X119967102Y-85069226D01*
X120167061Y-85109000D01*
X120229199Y-85109000D01*
X123409002Y-88288804D01*
X123409001Y-91040000D01*
X123342061Y-91040000D01*
X123142102Y-91079774D01*
X122953744Y-91157795D01*
X122784226Y-91271063D01*
X122640063Y-91415226D01*
X122526795Y-91584744D01*
X122448774Y-91773102D01*
X122409000Y-91973061D01*
X122409000Y-92035198D01*
X122038200Y-92405999D01*
X106876323Y-92405999D01*
X106839000Y-92402323D01*
X106801677Y-92405999D01*
X106801668Y-92405999D01*
X106690015Y-92416996D01*
X106546754Y-92460453D01*
X106414725Y-92531025D01*
X106299000Y-92625998D01*
X106275202Y-92654996D01*
X106077270Y-92852928D01*
X104814000Y-92852928D01*
X104689518Y-92865188D01*
X104569820Y-92901498D01*
X104459506Y-92960463D01*
X104362815Y-93039815D01*
X104283463Y-93136506D01*
X104224498Y-93246820D01*
X104188188Y-93366518D01*
X104175928Y-93491000D01*
X104175928Y-95191000D01*
X104188188Y-95315482D01*
X104224498Y-95435180D01*
X104283463Y-95545494D01*
X104362815Y-95642185D01*
X104459506Y-95721537D01*
X104569820Y-95780502D01*
X104642380Y-95802513D01*
X104510525Y-95934368D01*
X104348010Y-96177589D01*
X104236068Y-96447842D01*
X104179000Y-96734740D01*
X104179000Y-97027260D01*
X104236068Y-97314158D01*
X104348010Y-97584411D01*
X104510525Y-97827632D01*
X104717368Y-98034475D01*
X104960589Y-98196990D01*
X105230842Y-98308932D01*
X105517740Y-98366000D01*
X105810260Y-98366000D01*
X106097158Y-98308932D01*
X106367411Y-98196990D01*
X106610632Y-98034475D01*
X106817475Y-97827632D01*
X106934000Y-97653240D01*
X107050525Y-97827632D01*
X107257368Y-98034475D01*
X107500589Y-98196990D01*
X107770842Y-98308932D01*
X108057740Y-98366000D01*
X108350260Y-98366000D01*
X108637158Y-98308932D01*
X108907411Y-98196990D01*
X109150632Y-98034475D01*
X109357475Y-97827632D01*
X109479195Y-97645466D01*
X109548822Y-97762355D01*
X109743731Y-97978588D01*
X109977080Y-98152641D01*
X110239901Y-98277825D01*
X110387110Y-98322476D01*
X110617000Y-98201155D01*
X110617000Y-97008000D01*
X110871000Y-97008000D01*
X110871000Y-98201155D01*
X111100890Y-98322476D01*
X111248099Y-98277825D01*
X111510920Y-98152641D01*
X111744269Y-97978588D01*
X111939178Y-97762355D01*
X112088157Y-97512252D01*
X112185481Y-97237891D01*
X112064814Y-97008000D01*
X110871000Y-97008000D01*
X110617000Y-97008000D01*
X110597000Y-97008000D01*
X110597000Y-96754000D01*
X110617000Y-96754000D01*
X110617000Y-96734000D01*
X110871000Y-96734000D01*
X110871000Y-96754000D01*
X112064814Y-96754000D01*
X112185481Y-96524109D01*
X112097470Y-96276001D01*
X116918200Y-96276001D01*
X117837000Y-97194802D01*
X117837000Y-97256939D01*
X117876774Y-97456898D01*
X117954795Y-97645256D01*
X118068063Y-97814774D01*
X118212226Y-97958937D01*
X118381744Y-98072205D01*
X118570102Y-98150226D01*
X118770061Y-98190000D01*
X118973939Y-98190000D01*
X119173898Y-98150226D01*
X119362256Y-98072205D01*
X119531774Y-97958937D01*
X119675937Y-97814774D01*
X119789205Y-97645256D01*
X119867226Y-97456898D01*
X119907000Y-97256939D01*
X119907000Y-97053061D01*
X119867226Y-96853102D01*
X119789205Y-96664744D01*
X119675937Y-96495226D01*
X119531774Y-96351063D01*
X119362256Y-96237795D01*
X119173898Y-96159774D01*
X118973939Y-96120000D01*
X118911802Y-96120000D01*
X117892801Y-95101000D01*
X122213680Y-95101000D01*
X122251002Y-95104676D01*
X122288324Y-95101000D01*
X122288335Y-95101000D01*
X122399988Y-95090003D01*
X122543249Y-95046546D01*
X122675278Y-94975974D01*
X122791003Y-94881001D01*
X122814806Y-94851997D01*
X124680005Y-92986799D01*
X124709002Y-92963002D01*
X124803975Y-92847277D01*
X124874547Y-92715248D01*
X124918004Y-92571987D01*
X124929001Y-92460334D01*
X124929001Y-92460325D01*
X124932677Y-92423002D01*
X124929001Y-92385679D01*
X124929001Y-89172393D01*
X125605001Y-89848393D01*
X125605000Y-95652821D01*
X125418368Y-95777525D01*
X125211525Y-95984368D01*
X125049010Y-96227589D01*
X124937068Y-96497842D01*
X124880000Y-96784740D01*
X124880000Y-97077260D01*
X124937068Y-97364158D01*
X125049010Y-97634411D01*
X125211525Y-97877632D01*
X125418368Y-98084475D01*
X125661589Y-98246990D01*
X125931842Y-98358932D01*
X126138303Y-98400000D01*
X99339000Y-98400000D01*
X99339000Y-95484740D01*
X99480000Y-95484740D01*
X99480000Y-95777260D01*
X99537068Y-96064158D01*
X99649010Y-96334411D01*
X99811525Y-96577632D01*
X100018368Y-96784475D01*
X100261589Y-96946990D01*
X100531842Y-97058932D01*
X100818740Y-97116000D01*
X101111260Y-97116000D01*
X101398158Y-97058932D01*
X101668411Y-96946990D01*
X101911632Y-96784475D01*
X102118475Y-96577632D01*
X102280990Y-96334411D01*
X102392932Y-96064158D01*
X102450000Y-95777260D01*
X102450000Y-95484740D01*
X102392932Y-95197842D01*
X102280990Y-94927589D01*
X102118475Y-94684368D01*
X101911632Y-94477525D01*
X101729466Y-94355805D01*
X101846355Y-94286178D01*
X102062588Y-94091269D01*
X102236641Y-93857920D01*
X102361825Y-93595099D01*
X102406476Y-93447890D01*
X102285155Y-93218000D01*
X101092000Y-93218000D01*
X101092000Y-93238000D01*
X100838000Y-93238000D01*
X100838000Y-93218000D01*
X99644845Y-93218000D01*
X99523524Y-93447890D01*
X99568175Y-93595099D01*
X99693359Y-93857920D01*
X99867412Y-94091269D01*
X100083645Y-94286178D01*
X100200534Y-94355805D01*
X100018368Y-94477525D01*
X99811525Y-94684368D01*
X99649010Y-94927589D01*
X99537068Y-95197842D01*
X99480000Y-95484740D01*
X99339000Y-95484740D01*
X99339000Y-72542000D01*
X116397198Y-72542000D01*
X115022199Y-73917000D01*
G37*
X115022199Y-73917000D02*
X114960061Y-73917000D01*
X114760102Y-73956774D01*
X114571744Y-74034795D01*
X114402226Y-74148063D01*
X114258063Y-74292226D01*
X114144795Y-74461744D01*
X114066774Y-74650102D01*
X114027000Y-74850061D01*
X114027000Y-75053939D01*
X114066774Y-75253898D01*
X114144795Y-75442256D01*
X114258063Y-75611774D01*
X114402226Y-75755937D01*
X114571744Y-75869205D01*
X114760102Y-75947226D01*
X114960061Y-75987000D01*
X115163939Y-75987000D01*
X115363898Y-75947226D01*
X115552256Y-75869205D01*
X115721774Y-75755937D01*
X115865937Y-75611774D01*
X115979205Y-75442256D01*
X116057226Y-75253898D01*
X116097000Y-75053939D01*
X116097000Y-74991801D01*
X116547382Y-74541419D01*
X116638843Y-74799252D01*
X116787822Y-75049355D01*
X116982731Y-75265588D01*
X117216080Y-75439641D01*
X117478901Y-75564825D01*
X117626110Y-75609476D01*
X117856000Y-75488155D01*
X117856000Y-74295000D01*
X117836000Y-74295000D01*
X117836000Y-74041000D01*
X117856000Y-74041000D01*
X117856000Y-74021000D01*
X118110000Y-74021000D01*
X118110000Y-74041000D01*
X118130000Y-74041000D01*
X118130000Y-74295000D01*
X118110000Y-74295000D01*
X118110000Y-75488155D01*
X118339890Y-75609476D01*
X118487099Y-75564825D01*
X118749920Y-75439641D01*
X118983269Y-75265588D01*
X119059034Y-75181534D01*
X119083498Y-75262180D01*
X119142463Y-75372494D01*
X119221815Y-75469185D01*
X119318506Y-75548537D01*
X119428820Y-75607502D01*
X119548518Y-75643812D01*
X119673000Y-75656072D01*
X121373000Y-75656072D01*
X121497482Y-75643812D01*
X121617180Y-75607502D01*
X121727494Y-75548537D01*
X121824185Y-75469185D01*
X121903537Y-75372494D01*
X121962502Y-75262180D01*
X121998812Y-75142482D01*
X122011072Y-75018000D01*
X122011072Y-74725206D01*
X122110102Y-74766226D01*
X122310061Y-74806000D01*
X122513939Y-74806000D01*
X122713898Y-74766226D01*
X122902256Y-74688205D01*
X123071774Y-74574937D01*
X123215937Y-74430774D01*
X123329205Y-74261256D01*
X123407226Y-74072898D01*
X123447000Y-73872939D01*
X123447000Y-73669061D01*
X123407226Y-73469102D01*
X123329205Y-73280744D01*
X123215937Y-73111226D01*
X123071774Y-72967063D01*
X122902256Y-72853795D01*
X122713898Y-72775774D01*
X122513939Y-72736000D01*
X122451801Y-72736000D01*
X122257801Y-72542000D01*
X139802001Y-72542000D01*
X139802000Y-98400000D01*
X134981938Y-98400000D01*
X135079180Y-98370502D01*
X135189494Y-98311537D01*
X135286185Y-98232185D01*
X135365537Y-98135494D01*
X135424502Y-98025180D01*
X135460812Y-97905482D01*
X135473072Y-97781000D01*
X135473072Y-96081000D01*
X135460812Y-95956518D01*
X135424502Y-95836820D01*
X135365537Y-95726506D01*
X135286185Y-95629815D01*
X135189494Y-95550463D01*
X135079180Y-95491498D01*
X134959482Y-95455188D01*
X134835000Y-95442928D01*
X134745000Y-95442928D01*
X134745000Y-95281693D01*
X134748677Y-95244360D01*
X134734003Y-95095374D01*
X134690546Y-94952113D01*
X134619974Y-94820084D01*
X134548799Y-94733357D01*
X134525001Y-94704359D01*
X134496003Y-94680561D01*
X130289739Y-90474298D01*
X130446744Y-90579205D01*
X130635102Y-90657226D01*
X130835061Y-90697000D01*
X131024199Y-90697000D01*
X136861790Y-96534592D01*
X136818000Y-96754740D01*
X136818000Y-97047260D01*
X136875068Y-97334158D01*
X136987010Y-97604411D01*
X137149525Y-97847632D01*
X137356368Y-98054475D01*
X137599589Y-98216990D01*
X137869842Y-98328932D01*
X138156740Y-98386000D01*
X138449260Y-98386000D01*
X138736158Y-98328932D01*
X139006411Y-98216990D01*
X139249632Y-98054475D01*
X139456475Y-97847632D01*
X139618990Y-97604411D01*
X139730932Y-97334158D01*
X139788000Y-97047260D01*
X139788000Y-96754740D01*
X139730932Y-96467842D01*
X139618990Y-96197589D01*
X139456475Y-95954368D01*
X139249632Y-95747525D01*
X139075240Y-95631000D01*
X139249632Y-95514475D01*
X139456475Y-95307632D01*
X139618990Y-95064411D01*
X139730932Y-94794158D01*
X139788000Y-94507260D01*
X139788000Y-94214740D01*
X139730932Y-93927842D01*
X139618990Y-93657589D01*
X139456475Y-93414368D01*
X139249632Y-93207525D01*
X139075240Y-93091000D01*
X139249632Y-92974475D01*
X139456475Y-92767632D01*
X139618990Y-92524411D01*
X139730932Y-92254158D01*
X139788000Y-91967260D01*
X139788000Y-91674740D01*
X139730932Y-91387842D01*
X139618990Y-91117589D01*
X139456475Y-90874368D01*
X139324620Y-90742513D01*
X139397180Y-90720502D01*
X139507494Y-90661537D01*
X139604185Y-90582185D01*
X139683537Y-90485494D01*
X139742502Y-90375180D01*
X139778812Y-90255482D01*
X139791072Y-90131000D01*
X139788000Y-89566750D01*
X139629250Y-89408000D01*
X138430000Y-89408000D01*
X138430000Y-89428000D01*
X138176000Y-89428000D01*
X138176000Y-89408000D01*
X136976750Y-89408000D01*
X136818000Y-89566750D01*
X136814928Y-90131000D01*
X136827188Y-90255482D01*
X136863498Y-90375180D01*
X136922463Y-90485494D01*
X137001815Y-90582185D01*
X137098506Y-90661537D01*
X137208820Y-90720502D01*
X137281380Y-90742513D01*
X137149525Y-90874368D01*
X136987010Y-91117589D01*
X136875068Y-91387842D01*
X136818000Y-91674740D01*
X136818000Y-91801198D01*
X134036789Y-89019988D01*
X134144001Y-88932001D01*
X134167804Y-88902997D01*
X134639801Y-88431000D01*
X136814928Y-88431000D01*
X136818000Y-88995250D01*
X136976750Y-89154000D01*
X138176000Y-89154000D01*
X138176000Y-87954750D01*
X138430000Y-87954750D01*
X138430000Y-89154000D01*
X139629250Y-89154000D01*
X139788000Y-88995250D01*
X139791072Y-88431000D01*
X139778812Y-88306518D01*
X139742502Y-88186820D01*
X139683537Y-88076506D01*
X139604185Y-87979815D01*
X139507494Y-87900463D01*
X139397180Y-87841498D01*
X139277482Y-87805188D01*
X139153000Y-87792928D01*
X138588750Y-87796000D01*
X138430000Y-87954750D01*
X138176000Y-87954750D01*
X138017250Y-87796000D01*
X137453000Y-87792928D01*
X137328518Y-87805188D01*
X137208820Y-87841498D01*
X137098506Y-87900463D01*
X137001815Y-87979815D01*
X136922463Y-88076506D01*
X136863498Y-88186820D01*
X136827188Y-88306518D01*
X136814928Y-88431000D01*
X134639801Y-88431000D01*
X137163004Y-85907798D01*
X137192001Y-85884001D01*
X137236307Y-85830014D01*
X137286974Y-85768277D01*
X137357546Y-85636247D01*
X137357546Y-85636246D01*
X137401003Y-85492986D01*
X137412000Y-85381333D01*
X137412000Y-85381323D01*
X137415676Y-85344000D01*
X137412000Y-85306677D01*
X137412000Y-83276023D01*
X137967250Y-83273000D01*
X138126000Y-83114250D01*
X138126000Y-81915000D01*
X138380000Y-81915000D01*
X138380000Y-83114250D01*
X138538750Y-83273000D01*
X139103000Y-83276072D01*
X139227482Y-83263812D01*
X139347180Y-83227502D01*
X139457494Y-83168537D01*
X139554185Y-83089185D01*
X139633537Y-82992494D01*
X139692502Y-82882180D01*
X139728812Y-82762482D01*
X139741072Y-82638000D01*
X139738000Y-82073750D01*
X139579250Y-81915000D01*
X138380000Y-81915000D01*
X138126000Y-81915000D01*
X138106000Y-81915000D01*
X138106000Y-81661000D01*
X138126000Y-81661000D01*
X138126000Y-81641000D01*
X138380000Y-81641000D01*
X138380000Y-81661000D01*
X139579250Y-81661000D01*
X139738000Y-81502250D01*
X139741072Y-80938000D01*
X139728812Y-80813518D01*
X139692502Y-80693820D01*
X139633537Y-80583506D01*
X139554185Y-80486815D01*
X139457494Y-80407463D01*
X139347180Y-80348498D01*
X139274620Y-80326487D01*
X139406475Y-80194632D01*
X139568990Y-79951411D01*
X139680932Y-79681158D01*
X139738000Y-79394260D01*
X139738000Y-79101740D01*
X139680932Y-78814842D01*
X139568990Y-78544589D01*
X139406475Y-78301368D01*
X139199632Y-78094525D01*
X139025240Y-77978000D01*
X139199632Y-77861475D01*
X139406475Y-77654632D01*
X139568990Y-77411411D01*
X139680932Y-77141158D01*
X139738000Y-76854260D01*
X139738000Y-76561740D01*
X139680932Y-76274842D01*
X139568990Y-76004589D01*
X139406475Y-75761368D01*
X139199632Y-75554525D01*
X139025240Y-75438000D01*
X139199632Y-75321475D01*
X139406475Y-75114632D01*
X139568990Y-74871411D01*
X139680932Y-74601158D01*
X139738000Y-74314260D01*
X139738000Y-74021740D01*
X139680932Y-73734842D01*
X139568990Y-73464589D01*
X139406475Y-73221368D01*
X139199632Y-73014525D01*
X138956411Y-72852010D01*
X138686158Y-72740068D01*
X138399260Y-72683000D01*
X138106740Y-72683000D01*
X137819842Y-72740068D01*
X137549589Y-72852010D01*
X137306368Y-73014525D01*
X137099525Y-73221368D01*
X136937010Y-73464589D01*
X136825068Y-73734842D01*
X136768000Y-74021740D01*
X136768000Y-74314260D01*
X136811790Y-74534408D01*
X135848209Y-75497990D01*
X122280332Y-75497990D01*
X122243009Y-75494314D01*
X122205686Y-75497990D01*
X122205677Y-75497990D01*
X122094024Y-75508987D01*
X121950763Y-75552444D01*
X121818734Y-75623016D01*
X121703009Y-75717989D01*
X121679211Y-75746987D01*
X118578199Y-78848000D01*
X118516061Y-78848000D01*
X118316102Y-78887774D01*
X118127744Y-78965795D01*
X117958226Y-79079063D01*
X117814063Y-79223226D01*
X117700795Y-79392744D01*
X117657081Y-79498279D01*
X112958804Y-74800003D01*
X112935001Y-74770999D01*
X112819276Y-74676026D01*
X112687247Y-74605454D01*
X112543986Y-74561997D01*
X112432333Y-74551000D01*
X112432322Y-74551000D01*
X112395000Y-74547324D01*
X112357678Y-74551000D01*
X102453072Y-74551000D01*
X102453072Y-74461000D01*
X102440812Y-74336518D01*
X102404502Y-74216820D01*
X102345537Y-74106506D01*
X102266185Y-74009815D01*
X102169494Y-73930463D01*
X102059180Y-73871498D01*
X101939482Y-73835188D01*
X101815000Y-73822928D01*
X100115000Y-73822928D01*
X99990518Y-73835188D01*
X99870820Y-73871498D01*
X99760506Y-73930463D01*
X99663815Y-74009815D01*
X99584463Y-74106506D01*
X99525498Y-74216820D01*
X99489188Y-74336518D01*
X99476928Y-74461000D01*
X99476928Y-76161000D01*
X99489188Y-76285482D01*
X99525498Y-76405180D01*
X99584463Y-76515494D01*
X99663815Y-76612185D01*
X99760506Y-76691537D01*
X99870820Y-76750502D01*
X99943380Y-76772513D01*
X99811525Y-76904368D01*
X99649010Y-77147589D01*
X99537068Y-77417842D01*
X99480000Y-77704740D01*
X99480000Y-77997260D01*
X99537068Y-78284158D01*
X99649010Y-78554411D01*
X99811525Y-78797632D01*
X100018368Y-79004475D01*
X100192760Y-79121000D01*
X100018368Y-79237525D01*
X99811525Y-79444368D01*
X99649010Y-79687589D01*
X99537068Y-79957842D01*
X99480000Y-80244740D01*
X99480000Y-80537260D01*
X99537068Y-80824158D01*
X99649010Y-81094411D01*
X99811525Y-81337632D01*
X100018368Y-81544475D01*
X100192760Y-81661000D01*
X100018368Y-81777525D01*
X99811525Y-81984368D01*
X99649010Y-82227589D01*
X99537068Y-82497842D01*
X99480000Y-82784740D01*
X99480000Y-83077260D01*
X99537068Y-83364158D01*
X99649010Y-83634411D01*
X99811525Y-83877632D01*
X100018368Y-84084475D01*
X100192760Y-84201000D01*
X100018368Y-84317525D01*
X99811525Y-84524368D01*
X99649010Y-84767589D01*
X99537068Y-85037842D01*
X99480000Y-85324740D01*
X99480000Y-85617260D01*
X99537068Y-85904158D01*
X99649010Y-86174411D01*
X99811525Y-86417632D01*
X100018368Y-86624475D01*
X100192760Y-86741000D01*
X100018368Y-86857525D01*
X99811525Y-87064368D01*
X99649010Y-87307589D01*
X99537068Y-87577842D01*
X99480000Y-87864740D01*
X99480000Y-88157260D01*
X99537068Y-88444158D01*
X99649010Y-88714411D01*
X99811525Y-88957632D01*
X100018368Y-89164475D01*
X100192760Y-89281000D01*
X100018368Y-89397525D01*
X99811525Y-89604368D01*
X99649010Y-89847589D01*
X99537068Y-90117842D01*
X99480000Y-90404740D01*
X99480000Y-90697260D01*
X99537068Y-90984158D01*
X99649010Y-91254411D01*
X99811525Y-91497632D01*
X100018368Y-91704475D01*
X100200534Y-91826195D01*
X100083645Y-91895822D01*
X99867412Y-92090731D01*
X99693359Y-92324080D01*
X99568175Y-92586901D01*
X99523524Y-92734110D01*
X99644845Y-92964000D01*
X100838000Y-92964000D01*
X100838000Y-92944000D01*
X101092000Y-92944000D01*
X101092000Y-92964000D01*
X102285155Y-92964000D01*
X102406476Y-92734110D01*
X102361825Y-92586901D01*
X102236641Y-92324080D01*
X102062588Y-92090731D01*
X101846355Y-91895822D01*
X101729466Y-91826195D01*
X101911632Y-91704475D01*
X102118475Y-91497632D01*
X102280990Y-91254411D01*
X102392932Y-90984158D01*
X102450000Y-90697260D01*
X102450000Y-90404740D01*
X102392932Y-90117842D01*
X102280990Y-89847589D01*
X102118475Y-89604368D01*
X101911632Y-89397525D01*
X101737240Y-89281000D01*
X101911632Y-89164475D01*
X102118475Y-88957632D01*
X102280990Y-88714411D01*
X102392932Y-88444158D01*
X102450000Y-88157260D01*
X102450000Y-87864740D01*
X102392932Y-87577842D01*
X102280990Y-87307589D01*
X102118475Y-87064368D01*
X101911632Y-86857525D01*
X101737240Y-86741000D01*
X101911632Y-86624475D01*
X102118475Y-86417632D01*
X102280990Y-86174411D01*
X102392932Y-85904158D01*
X102450000Y-85617260D01*
X102450000Y-85490801D01*
X108275201Y-91316003D01*
X108298999Y-91345001D01*
X108327997Y-91368799D01*
X108414724Y-91439974D01*
X108546753Y-91510546D01*
X108690014Y-91554003D01*
X108839000Y-91568677D01*
X108876333Y-91565000D01*
X115374289Y-91565000D01*
X115418226Y-91608937D01*
X115587744Y-91722205D01*
X115776102Y-91800226D01*
X115976061Y-91840000D01*
X116179939Y-91840000D01*
X116379898Y-91800226D01*
X116568256Y-91722205D01*
X116737774Y-91608937D01*
X116881937Y-91464774D01*
X116995205Y-91295256D01*
X117073226Y-91106898D01*
X117113000Y-90906939D01*
X117113000Y-90703061D01*
X117073226Y-90503102D01*
X116995205Y-90314744D01*
X116881937Y-90145226D01*
X116737774Y-90001063D01*
X116568256Y-89887795D01*
X116379898Y-89809774D01*
X116179939Y-89770000D01*
X115976061Y-89770000D01*
X115776102Y-89809774D01*
X115587744Y-89887795D01*
X115418226Y-90001063D01*
X115374289Y-90045000D01*
X109153802Y-90045000D01*
X104985863Y-85877061D01*
X105645000Y-85877061D01*
X105645000Y-86080939D01*
X105684774Y-86280898D01*
X105762795Y-86469256D01*
X105876063Y-86638774D01*
X106020226Y-86782937D01*
X106189744Y-86896205D01*
X106378102Y-86974226D01*
X106578061Y-87014000D01*
X106781939Y-87014000D01*
X106981898Y-86974226D01*
X107170256Y-86896205D01*
X107339774Y-86782937D01*
X107383711Y-86739000D01*
X108420678Y-86739000D01*
X108458000Y-86742676D01*
X108495322Y-86739000D01*
X108495333Y-86739000D01*
X108606986Y-86728003D01*
X108750247Y-86684546D01*
X108882276Y-86613974D01*
X108998001Y-86519001D01*
X109021804Y-86489997D01*
X109894802Y-85617000D01*
X109956939Y-85617000D01*
X110156898Y-85577226D01*
X110345256Y-85499205D01*
X110514774Y-85385937D01*
X110658937Y-85241774D01*
X110772205Y-85072256D01*
X110850226Y-84883898D01*
X110890000Y-84683939D01*
X110890000Y-84480061D01*
X110850226Y-84280102D01*
X110772205Y-84091744D01*
X110658937Y-83922226D01*
X110514774Y-83778063D01*
X110345256Y-83664795D01*
X110156898Y-83586774D01*
X109956939Y-83547000D01*
X109753061Y-83547000D01*
X109553102Y-83586774D01*
X109364744Y-83664795D01*
X109195226Y-83778063D01*
X109051063Y-83922226D01*
X108937795Y-84091744D01*
X108859774Y-84280102D01*
X108820000Y-84480061D01*
X108820000Y-84542198D01*
X108143199Y-85219000D01*
X107383711Y-85219000D01*
X107339774Y-85175063D01*
X107170256Y-85061795D01*
X106981898Y-84983774D01*
X106781939Y-84944000D01*
X106578061Y-84944000D01*
X106378102Y-84983774D01*
X106189744Y-85061795D01*
X106020226Y-85175063D01*
X105876063Y-85319226D01*
X105762795Y-85488744D01*
X105684774Y-85677102D01*
X105645000Y-85877061D01*
X104985863Y-85877061D01*
X102406209Y-83297408D01*
X102450000Y-83077260D01*
X102450000Y-82784740D01*
X102392932Y-82497842D01*
X102280990Y-82227589D01*
X102118475Y-81984368D01*
X101911632Y-81777525D01*
X101737240Y-81661000D01*
X101911632Y-81544475D01*
X102118475Y-81337632D01*
X102243178Y-81151000D01*
X110048199Y-81151000D01*
X113990201Y-85093003D01*
X114013999Y-85122001D01*
X114042997Y-85145799D01*
X114095999Y-85189297D01*
X114131063Y-85241774D01*
X114275226Y-85385937D01*
X114444744Y-85499205D01*
X114633102Y-85577226D01*
X114833061Y-85617000D01*
X115036939Y-85617000D01*
X115236898Y-85577226D01*
X115425256Y-85499205D01*
X115594774Y-85385937D01*
X115738937Y-85241774D01*
X115852205Y-85072256D01*
X115930226Y-84883898D01*
X115970000Y-84683939D01*
X115970000Y-84480061D01*
X115930226Y-84280102D01*
X115852205Y-84091744D01*
X115762490Y-83957476D01*
X115788805Y-83893946D01*
X115828579Y-83693987D01*
X115828579Y-83490109D01*
X115788805Y-83290150D01*
X115710784Y-83101792D01*
X115597516Y-82932274D01*
X115453353Y-82788111D01*
X115283835Y-82674843D01*
X115095477Y-82596822D01*
X114895518Y-82557048D01*
X114746850Y-82557048D01*
X109529804Y-77340003D01*
X109506001Y-77310999D01*
X109390276Y-77216026D01*
X109258247Y-77145454D01*
X109114986Y-77101997D01*
X109003333Y-77091000D01*
X109003322Y-77091000D01*
X108966000Y-77087324D01*
X108928678Y-77091000D01*
X102243178Y-77091000D01*
X102118475Y-76904368D01*
X101986620Y-76772513D01*
X102059180Y-76750502D01*
X102169494Y-76691537D01*
X102266185Y-76612185D01*
X102345537Y-76515494D01*
X102404502Y-76405180D01*
X102440812Y-76285482D01*
X102453072Y-76161000D01*
X102453072Y-76071000D01*
X112080199Y-76071000D01*
X116694000Y-80684802D01*
X116694000Y-80746939D01*
X116733774Y-80946898D01*
X116811795Y-81135256D01*
X116925063Y-81304774D01*
X117069226Y-81448937D01*
X117238744Y-81562205D01*
X117427102Y-81640226D01*
X117627061Y-81680000D01*
X117830939Y-81680000D01*
X118030898Y-81640226D01*
X118219256Y-81562205D01*
X118388774Y-81448937D01*
X118532937Y-81304774D01*
X118618000Y-81177468D01*
X118703063Y-81304774D01*
X118847226Y-81448937D01*
X119016744Y-81562205D01*
X119205102Y-81640226D01*
X119405061Y-81680000D01*
X119608939Y-81680000D01*
X119808898Y-81640226D01*
X119997256Y-81562205D01*
X120166774Y-81448937D01*
X120310937Y-81304774D01*
X120424205Y-81135256D01*
X120502226Y-80946898D01*
X120523568Y-80839606D01*
X120623607Y-80939645D01*
X120793125Y-81052913D01*
X120981483Y-81130934D01*
X121181442Y-81170708D01*
X121385320Y-81170708D01*
X121585279Y-81130934D01*
X121773637Y-81052913D01*
X121943155Y-80939645D01*
X121957498Y-80925302D01*
X122188199Y-81156002D01*
X122211997Y-81185001D01*
X122327722Y-81279974D01*
X122459751Y-81350546D01*
X122603012Y-81394003D01*
X122714665Y-81405000D01*
X122714673Y-81405000D01*
X122751998Y-81408676D01*
X122789323Y-81405000D01*
X125786156Y-81405000D01*
X125830093Y-81448937D01*
X125999611Y-81562205D01*
X126187969Y-81640226D01*
X126387928Y-81680000D01*
X126591806Y-81680000D01*
X126791765Y-81640226D01*
X126980123Y-81562205D01*
X127149641Y-81448937D01*
X127293804Y-81304774D01*
X127407072Y-81135256D01*
X127485093Y-80946898D01*
X127524867Y-80746939D01*
X127524867Y-80543061D01*
X127485093Y-80343102D01*
X127440330Y-80235036D01*
X127460102Y-80243226D01*
X127660061Y-80283000D01*
X127863939Y-80283000D01*
X128063898Y-80243226D01*
X128252256Y-80165205D01*
X128421774Y-80051937D01*
X128565937Y-79907774D01*
X128679205Y-79738256D01*
X128757226Y-79549898D01*
X128797000Y-79349939D01*
X128797000Y-79146061D01*
X128757226Y-78946102D01*
X128679205Y-78757744D01*
X128565937Y-78588226D01*
X128421774Y-78444063D01*
X128252256Y-78330795D01*
X128063898Y-78252774D01*
X127863939Y-78213000D01*
X127660061Y-78213000D01*
X127460102Y-78252774D01*
X127271744Y-78330795D01*
X127102226Y-78444063D01*
X127058289Y-78488000D01*
X123227322Y-78488000D01*
X123189999Y-78484324D01*
X123152676Y-78488000D01*
X123152667Y-78488000D01*
X123041014Y-78498997D01*
X122897753Y-78542454D01*
X122801319Y-78594000D01*
X122707061Y-78594000D01*
X122614363Y-78612439D01*
X123758802Y-77468000D01*
X134526434Y-77468000D01*
X132765435Y-79229000D01*
X132703297Y-79229000D01*
X132503338Y-79268774D01*
X132314980Y-79346795D01*
X132145462Y-79460063D01*
X132001299Y-79604226D01*
X131888031Y-79773744D01*
X131810010Y-79962102D01*
X131770236Y-80162061D01*
X131770236Y-80365939D01*
X131810010Y-80565898D01*
X131888031Y-80754256D01*
X132001299Y-80923774D01*
X132145462Y-81067937D01*
X132314980Y-81181205D01*
X132503338Y-81259226D01*
X132703297Y-81299000D01*
X132907175Y-81299000D01*
X133107134Y-81259226D01*
X133295492Y-81181205D01*
X133465010Y-81067937D01*
X133508947Y-81024000D01*
X134940199Y-81024000D01*
X135441990Y-81525792D01*
X135441991Y-82939207D01*
X130426003Y-87955196D01*
X130396999Y-87978999D01*
X130341871Y-88046174D01*
X130302026Y-88094724D01*
X130292907Y-88111785D01*
X130231454Y-88226754D01*
X130187997Y-88370015D01*
X130177000Y-88481668D01*
X130177000Y-88481678D01*
X130173324Y-88519000D01*
X130177000Y-88556323D01*
X130177000Y-88958289D01*
X130133063Y-89002226D01*
X130019795Y-89171744D01*
X129941774Y-89360102D01*
X129902000Y-89560061D01*
X129902000Y-89763939D01*
X129941774Y-89963898D01*
X130019795Y-90152256D01*
X130124702Y-90309261D01*
X129030000Y-89214559D01*
X129030000Y-85623333D01*
X129033677Y-85586000D01*
X129019003Y-85437014D01*
X128975546Y-85293753D01*
X128904974Y-85161724D01*
X128833799Y-85074997D01*
X128810001Y-85045999D01*
X128781003Y-85022201D01*
X128174000Y-84415199D01*
X128174000Y-84353061D01*
X128134226Y-84153102D01*
X128056205Y-83964744D01*
X127942937Y-83795226D01*
X127798774Y-83651063D01*
X127629256Y-83537795D01*
X127440898Y-83459774D01*
X127240939Y-83420000D01*
X127192591Y-83420000D01*
X127155205Y-83329744D01*
X127041937Y-83160226D01*
X126897774Y-83016063D01*
X126728256Y-82902795D01*
X126539898Y-82824774D01*
X126339939Y-82785000D01*
X126136061Y-82785000D01*
X125936102Y-82824774D01*
X125747744Y-82902795D01*
X125578226Y-83016063D01*
X125434063Y-83160226D01*
X125320795Y-83329744D01*
X125242774Y-83518102D01*
X125203000Y-83718061D01*
X125203000Y-83921939D01*
X125242774Y-84121898D01*
X125320795Y-84310256D01*
X125434063Y-84479774D01*
X125578226Y-84623937D01*
X125605001Y-84641827D01*
X125605000Y-87062379D01*
X124204000Y-85661379D01*
X124204000Y-84657188D01*
X124276630Y-84584558D01*
X124389898Y-84415040D01*
X124467919Y-84226682D01*
X124507693Y-84026723D01*
X124507693Y-83822845D01*
X124467919Y-83622886D01*
X124389898Y-83434528D01*
X124276630Y-83265010D01*
X124132467Y-83120847D01*
X123962949Y-83007579D01*
X123774591Y-82929558D01*
X123574632Y-82889784D01*
X123370754Y-82889784D01*
X123170795Y-82929558D01*
X122982437Y-83007579D01*
X122812919Y-83120847D01*
X122668756Y-83265010D01*
X122555488Y-83434528D01*
X122522824Y-83513385D01*
X122380102Y-83541774D01*
X122191744Y-83619795D01*
X122022226Y-83733063D01*
X121878063Y-83877226D01*
X121764795Y-84046744D01*
X121686774Y-84235102D01*
X121656600Y-84386799D01*
X121304000Y-84034199D01*
X121304000Y-83972061D01*
X121264226Y-83772102D01*
X121186205Y-83583744D01*
X121072937Y-83414226D01*
X120928774Y-83270063D01*
X120759256Y-83156795D01*
X120570898Y-83078774D01*
X120370939Y-83039000D01*
X120167061Y-83039000D01*
X119967102Y-83078774D01*
X119778744Y-83156795D01*
X119609226Y-83270063D01*
X119465063Y-83414226D01*
X119351795Y-83583744D01*
X119273774Y-83772102D01*
X119234000Y-83972061D01*
X119234000Y-84175939D01*
X119273774Y-84375898D01*
X119351795Y-84564256D01*
X119465063Y-84733774D01*
X119609226Y-84877937D01*
X119778744Y-84991205D01*
X119967102Y-85069226D01*
X120167061Y-85109000D01*
X120229199Y-85109000D01*
X123409002Y-88288804D01*
X123409001Y-91040000D01*
X123342061Y-91040000D01*
X123142102Y-91079774D01*
X122953744Y-91157795D01*
X122784226Y-91271063D01*
X122640063Y-91415226D01*
X122526795Y-91584744D01*
X122448774Y-91773102D01*
X122409000Y-91973061D01*
X122409000Y-92035198D01*
X122038200Y-92405999D01*
X106876323Y-92405999D01*
X106839000Y-92402323D01*
X106801677Y-92405999D01*
X106801668Y-92405999D01*
X106690015Y-92416996D01*
X106546754Y-92460453D01*
X106414725Y-92531025D01*
X106299000Y-92625998D01*
X106275202Y-92654996D01*
X106077270Y-92852928D01*
X104814000Y-92852928D01*
X104689518Y-92865188D01*
X104569820Y-92901498D01*
X104459506Y-92960463D01*
X104362815Y-93039815D01*
X104283463Y-93136506D01*
X104224498Y-93246820D01*
X104188188Y-93366518D01*
X104175928Y-93491000D01*
X104175928Y-95191000D01*
X104188188Y-95315482D01*
X104224498Y-95435180D01*
X104283463Y-95545494D01*
X104362815Y-95642185D01*
X104459506Y-95721537D01*
X104569820Y-95780502D01*
X104642380Y-95802513D01*
X104510525Y-95934368D01*
X104348010Y-96177589D01*
X104236068Y-96447842D01*
X104179000Y-96734740D01*
X104179000Y-97027260D01*
X104236068Y-97314158D01*
X104348010Y-97584411D01*
X104510525Y-97827632D01*
X104717368Y-98034475D01*
X104960589Y-98196990D01*
X105230842Y-98308932D01*
X105517740Y-98366000D01*
X105810260Y-98366000D01*
X106097158Y-98308932D01*
X106367411Y-98196990D01*
X106610632Y-98034475D01*
X106817475Y-97827632D01*
X106934000Y-97653240D01*
X107050525Y-97827632D01*
X107257368Y-98034475D01*
X107500589Y-98196990D01*
X107770842Y-98308932D01*
X108057740Y-98366000D01*
X108350260Y-98366000D01*
X108637158Y-98308932D01*
X108907411Y-98196990D01*
X109150632Y-98034475D01*
X109357475Y-97827632D01*
X109479195Y-97645466D01*
X109548822Y-97762355D01*
X109743731Y-97978588D01*
X109977080Y-98152641D01*
X110239901Y-98277825D01*
X110387110Y-98322476D01*
X110617000Y-98201155D01*
X110617000Y-97008000D01*
X110871000Y-97008000D01*
X110871000Y-98201155D01*
X111100890Y-98322476D01*
X111248099Y-98277825D01*
X111510920Y-98152641D01*
X111744269Y-97978588D01*
X111939178Y-97762355D01*
X112088157Y-97512252D01*
X112185481Y-97237891D01*
X112064814Y-97008000D01*
X110871000Y-97008000D01*
X110617000Y-97008000D01*
X110597000Y-97008000D01*
X110597000Y-96754000D01*
X110617000Y-96754000D01*
X110617000Y-96734000D01*
X110871000Y-96734000D01*
X110871000Y-96754000D01*
X112064814Y-96754000D01*
X112185481Y-96524109D01*
X112097470Y-96276001D01*
X116918200Y-96276001D01*
X117837000Y-97194802D01*
X117837000Y-97256939D01*
X117876774Y-97456898D01*
X117954795Y-97645256D01*
X118068063Y-97814774D01*
X118212226Y-97958937D01*
X118381744Y-98072205D01*
X118570102Y-98150226D01*
X118770061Y-98190000D01*
X118973939Y-98190000D01*
X119173898Y-98150226D01*
X119362256Y-98072205D01*
X119531774Y-97958937D01*
X119675937Y-97814774D01*
X119789205Y-97645256D01*
X119867226Y-97456898D01*
X119907000Y-97256939D01*
X119907000Y-97053061D01*
X119867226Y-96853102D01*
X119789205Y-96664744D01*
X119675937Y-96495226D01*
X119531774Y-96351063D01*
X119362256Y-96237795D01*
X119173898Y-96159774D01*
X118973939Y-96120000D01*
X118911802Y-96120000D01*
X117892801Y-95101000D01*
X122213680Y-95101000D01*
X122251002Y-95104676D01*
X122288324Y-95101000D01*
X122288335Y-95101000D01*
X122399988Y-95090003D01*
X122543249Y-95046546D01*
X122675278Y-94975974D01*
X122791003Y-94881001D01*
X122814806Y-94851997D01*
X124680005Y-92986799D01*
X124709002Y-92963002D01*
X124803975Y-92847277D01*
X124874547Y-92715248D01*
X124918004Y-92571987D01*
X124929001Y-92460334D01*
X124929001Y-92460325D01*
X124932677Y-92423002D01*
X124929001Y-92385679D01*
X124929001Y-89172393D01*
X125605001Y-89848393D01*
X125605000Y-95652821D01*
X125418368Y-95777525D01*
X125211525Y-95984368D01*
X125049010Y-96227589D01*
X124937068Y-96497842D01*
X124880000Y-96784740D01*
X124880000Y-97077260D01*
X124937068Y-97364158D01*
X125049010Y-97634411D01*
X125211525Y-97877632D01*
X125418368Y-98084475D01*
X125661589Y-98246990D01*
X125931842Y-98358932D01*
X126138303Y-98400000D01*
X99339000Y-98400000D01*
X99339000Y-95484740D01*
X99480000Y-95484740D01*
X99480000Y-95777260D01*
X99537068Y-96064158D01*
X99649010Y-96334411D01*
X99811525Y-96577632D01*
X100018368Y-96784475D01*
X100261589Y-96946990D01*
X100531842Y-97058932D01*
X100818740Y-97116000D01*
X101111260Y-97116000D01*
X101398158Y-97058932D01*
X101668411Y-96946990D01*
X101911632Y-96784475D01*
X102118475Y-96577632D01*
X102280990Y-96334411D01*
X102392932Y-96064158D01*
X102450000Y-95777260D01*
X102450000Y-95484740D01*
X102392932Y-95197842D01*
X102280990Y-94927589D01*
X102118475Y-94684368D01*
X101911632Y-94477525D01*
X101729466Y-94355805D01*
X101846355Y-94286178D01*
X102062588Y-94091269D01*
X102236641Y-93857920D01*
X102361825Y-93595099D01*
X102406476Y-93447890D01*
X102285155Y-93218000D01*
X101092000Y-93218000D01*
X101092000Y-93238000D01*
X100838000Y-93238000D01*
X100838000Y-93218000D01*
X99644845Y-93218000D01*
X99523524Y-93447890D01*
X99568175Y-93595099D01*
X99693359Y-93857920D01*
X99867412Y-94091269D01*
X100083645Y-94286178D01*
X100200534Y-94355805D01*
X100018368Y-94477525D01*
X99811525Y-94684368D01*
X99649010Y-94927589D01*
X99537068Y-95197842D01*
X99480000Y-95484740D01*
X99339000Y-95484740D01*
X99339000Y-72542000D01*
X116397198Y-72542000D01*
X115022199Y-73917000D01*
%TD*%
M02*
