M48
; DRILL file {KiCad (5.1.6)-1} date 02/06/21 14:44:42
; FORMAT={-:-/ absolute / inch / decimal}
; #@! TF.CreationDate,2021-02-06T14:44:42-06:00
; #@! TF.GenerationSoftware,Kicad,Pcbnew,(5.1.6)-1
FMAT,2
INCH
T1C0.0157
T2C0.0394
%
G90
G05
T1
X4.2Y-3.385
X4.325Y-3.33
X4.5194Y-3.291
X4.525Y-3.33
X4.53Y-2.9509
X4.57Y-3.575
X4.635Y-3.175
X4.67Y-3.145
X4.68Y-3.825
X4.705Y-3.175
X4.735Y-3.31
X4.7749Y-3.1549
X4.8194Y-2.9044
X4.83Y-3.3282
X4.835Y-3.135
X4.86Y-3.625
X4.8611Y-3.3041
X4.97Y-3.3
X4.9799Y-3.175
X5.0055Y-3.325
X5.03Y-3.12
X5.155Y-3.53
X5.21Y-3.48
X5.2286Y-3.16
X5.345Y-3.125
X5.355Y-3.0485
X5.395Y-3.055
T2
X4.645Y-2.92
X4.745Y-2.92
X4.975Y-3.8162
X5.075Y-3.8162
X5.175Y-3.8162
X5.275Y-3.8162
X3.975Y-2.965
X3.975Y-3.065
X3.975Y-3.165
X3.975Y-3.265
X3.975Y-3.365
X3.975Y-3.465
X3.975Y-3.565
X3.975Y-3.665
X3.975Y-3.765
X5.445Y-3.515
X5.445Y-3.615
X5.445Y-3.715
X5.445Y-3.815
X5.443Y-2.92
X5.443Y-3.02
X5.443Y-3.12
X5.443Y-3.22
X4.16Y-3.7142
X4.16Y-3.8142
X4.26Y-3.7142
X4.26Y-3.8142
X4.36Y-3.7142
X4.36Y-3.8142
T0
M30
